<?xml version="1.0" standalone="no"?>
<!DOCTYPE svg PUBLIC "-//W3C//DTD SVG 1.1//EN" "http://www.w3.org/Graphics/SVG/1.1/DTD/svg11.dtd" >
<svg>
<metadata>
Created by FontForge 20110222 at Fri Jun 20 12:01:03 2014
 By deploy user
Copyright (c) 1992 Image Club Graphics, Inc.
</metadata>
<defs>
<font id="FranklinBold" horiz-adv-x="1253" >
  <font-face 
    font-family="Franklin Gothic"
    font-weight="7"
    font-stretch="normal"
    units-per-em="1914"
    panose-1="0 0 0 0 0 0 0 0 0 0"
    ascent="1531"
    descent="-383"
    x-height="1155"
    cap-height="1538"
    bbox="-120 -481 2158 2102"
    underline-thickness="20"
    underline-position="-128"
    unicode-range="U+0020-25CA"
  />
<missing-glyph horiz-adv-x="1538" 
d="M96 0v1538h1346v-1538h-1346zM1346 96v1346h-1154v-1346h1154z" />
    <glyph glyph-name=".notdef" horiz-adv-x="1538" 
d="M96 0v1538h1346v-1538h-1346zM1346 96v1346h-1154v-1346h1154z" />
    <glyph glyph-name=".null" unicode="&#xd7;" horiz-adv-x="0" 
 />
    <glyph glyph-name=".null" unicode="&#x141;" horiz-adv-x="0" 
 />
    <glyph glyph-name=".null" unicode="&#xfd;" horiz-adv-x="0" 
 />
    <glyph glyph-name="nonmarkingreturn" horiz-adv-x="699" 
 />
    <glyph glyph-name="space" unicode=" " horiz-adv-x="699" 
 />
    <glyph glyph-name="exclam" unicode="!" horiz-adv-x="629" 
d="M532 1532l-109 -1075h-204l-106 1075h419zM492 -3h-339v349h339v-349z" />
    <glyph glyph-name="quotedbl" unicode="&#x22;" horiz-adv-x="920" 
d="M931 1250l-93 -288h-119l-92 282v294h304v-288zM414 1250l-93 -288h-119l-92 282v294h304v-288z" />
    <glyph glyph-name="numbersign" unicode="#" horiz-adv-x="1434" 
d="M1334 881h-220l-51 -267h208v-241h-261l-74 -374h-241l70 374h-213l-77 -375h-240l74 370h-202v246h252l50 265h-212v243h261l80 414h240l-82 -415h222l83 419h234l-80 -418h179v-241zM873 882h-223l-53 -267h223z" />
    <glyph glyph-name="dollar" unicode="$" horiz-adv-x="1375" 
d="M1275 562q0 -194 -144 -330q-136 -129 -345 -155v-208h-186v208q-80 0 -188 47q-126 55 -203 143q-39 45 -62.5 93.5t-38.5 111.5l308 69q27 -93 101.5 -146.5t174.5 -53.5q140 0 195 43q47 37 47 109q0 96 -193 149q-294 81 -360 118q-194 108 -194 336q0 160 83.5 268
t258.5 159q37 10 68 10v118h185v-112q40 0 125 -25q112 -33 173.5 -83.5t94.5 -100t57 -126.5l-276 -92q-29 83 -69 115q-49 40 -157 51q-9 1 -17 1.5t-20 0.5q-70 0 -117 -25q-56 -30 -63 -87q-1 -6 -1 -18q0 -96 197 -142q298 -69 368 -106q198 -104 198 -340z" />
    <glyph glyph-name="percent" unicode="%" horiz-adv-x="1650" 
d="M737 1143q0 -171 -63 -271q-79 -124 -249 -124q-158 0 -247 124q-79 110 -79 274q0 158 77 266q87 122 237 122q169 0 253 -121q71 -102 71 -270zM1338 1533l-851 -1532h-174l851 1532h174zM1557 403q0 -171 -63 -271q-79 -124 -249 -124q-158 0 -247 124
q-79 110 -79 273q0 158 77 265q86 120 237 120q168 0 253 -120q71 -101 71 -267zM526 1165q0 113 -11 152q-22 78 -96 78q-85 0 -103 -128q-7 -50 -7 -130q0 -118 13 -162q25 -84 107 -84q61 0 83 65q15 44 15 140q0 17 -0.5 34.5t-0.5 34.5zM1351 419q0 108 -14 153
q-24 78 -98 78q-85 0 -103 -128q-7 -50 -7 -131q0 -117 13 -161q25 -83 107 -83q65 0 87 72q15 48 15 152v48z" />
    <glyph glyph-name="ampersand" unicode="&#x26;" horiz-adv-x="1749" 
d="M1643 41q-41 -13 -75.5 -18t-79.5 -5q-106 0 -182.5 32.5t-152.5 110.5q-89 -79 -204 -121.5t-254 -42.5q-258 0 -418.5 124t-180.5 343q-1 8 -1 17v14q0 157 140 287q118 109 244 133q-51 39 -94 126q-50 100 -50 192q0 159 150 257q135 88 320 88q217 0 343 -111
q118 -104 118 -270q0 -144 -116 -259q-87 -86 -166 -107l206 -226q32 39 52 71.5t39 76.5t28 74t17 76l317 -47q-14 -58 -26 -94t-38 -97q-40 -91 -81 -155.5t-106 -140.5q20 -20 39 -32.5t49 -24.5q5 -2 37.5 -6.5t57.5 -4.5q26 0 38 1.5t30 7.5v-269zM985 1196
q0 48 -46 96q-51 53 -117 53q-26 0 -49 -7.5t-51 -25.5q-21 -15 -33.5 -40.5t-12.5 -53.5q0 -50 33 -85l118 -118q33 0 89 49q69 60 69 132zM971 369l-313 340q-71 -14 -116.5 -60t-59.5 -118q-4 -17 -4 -39q0 -88 75 -149t185 -61q47 0 94 13t77.5 28.5t61.5 45.5z" />
    <glyph glyph-name="quotesingle" unicode="'" horiz-adv-x="500" 
d="M418 1226l-98 -262h-119l-93 281v293l308 1z" />
    <glyph glyph-name="parenleft" unicode="(" horiz-adv-x="756" 
d="M650 1698q-146 -252 -203 -466t-57 -507q0 -281 54.5 -487.5t194.5 -455.5h-235q-114 146 -193 329q-68 157 -105 336q-33 159 -33 292q0 120 32 276q38 183 105 345q80 192 194 338h246z" />
    <glyph glyph-name="parenright" unicode=")" horiz-adv-x="774" 
d="M673 739q0 -136 -32 -291q-37 -177 -105 -336q-78 -181 -194 -330h-235q140 250 194.5 455t54.5 488q0 296 -56 506.5t-204 466.5h246q112 -144 193 -337q67 -161 105 -345q33 -160 33 -277z" />
    <glyph glyph-name="asterisk" unicode="*" horiz-adv-x="1094" 
d="M996 1373l-325 -101l213 -265l-148 -111l-198 281l-186 -284l-149 107l207 269l-333 96l56 169l319 -108l-14 340h186l-7 -340l321 119z" />
    <glyph glyph-name="plus" unicode="+" horiz-adv-x="1291" 
d="M1203 408h-410v-411h-273v410h-415v277h412v412h278v-411h408v-277z" />
    <glyph glyph-name="comma" unicode="," horiz-adv-x="527" 
d="M441 29l-216 -385h-131l171 357h-163v348h339v-320z" />
    <glyph glyph-name="hyphen" unicode="-" horiz-adv-x="775" 
d="M687 465h-583v273h583v-273z" />
    <glyph glyph-name="period" unicode="." horiz-adv-x="547" 
d="M455 -1h-345v348h345v-348z" />
    <glyph glyph-name="slash" unicode="/" horiz-adv-x="1516" 
d="M1390 1599l-954 -1673h-229l959 1673h224z" />
    <glyph glyph-name="zero" unicode="0" horiz-adv-x="1388" 
d="M1284 756q0 -339 -158 -551q-164 -220 -442 -220q-282 0 -445 248q-145 220 -145 533q0 209 55 377q63 192 185 297q141 121 349 121q296 0 459 -256q142 -222 142 -549zM914 783q0 150 -11 235q-17 132 -64 203q-57 87 -161 87q-100 0 -152 -85q-42 -69 -56 -199
q-8 -76 -8 -230q0 -165 9 -244q16 -137 63 -212q57 -91 164 -91q103 0 155 89q43 73 55 208q6 67 6 239z" />
    <glyph glyph-name="one" unicode="1" horiz-adv-x="1441" 
d="M1347 -7l-1249 -1v289h456v858l-428 -228v310q62 16 100.5 30.5t105.5 45.5q109 52 130 66q76 50 188 171l266 -1v-1244h431v-296z" />
    <glyph glyph-name="two" unicode="2" horiz-adv-x="1358" 
d="M1259 -1h-1169v297l560 429q98 75 158 157q72 99 72 187q0 36 -12.5 69t-40.5 65q-33 37 -73.5 55.5t-82.5 18.5q-101 0 -183 -89.5t-82 -208.5l-310 76q45 234 181 358q152 138 413 138q158 0 262 -43q116 -48 199 -161q47 -64 69.5 -133.5t22.5 -139.5q0 -141 -84 -276
q-77 -124 -201 -207l-424 -282h725v-310z" />
    <glyph glyph-name="three" unicode="3" horiz-adv-x="1397" 
d="M1293 436q-24 -249 -202 -362q-147 -94 -395 -94t-400 127q-139 117 -195 340l327 47q-2 -10 -2 -16q0 -69 70 -142q81 -85 190 -85q37 0 70.5 8.5t74.5 29.5q52 27 78 72t26 96q0 79 -52 137q-56 62 -142 62h-238v274h236q62 0 107.5 54.5t45.5 125.5q0 33 -10.5 62.5
t-34.5 55.5q-33 36 -72 53t-81 17q-78 0 -144.5 -51t-78.5 -111l-6 -34l-321 51q58 190 206 297.5t349 107.5q220 0 372 -102q172 -115 172 -317q0 -140 -70 -220q-56 -64 -184 -114q134 -42 215 -127q90 -94 90 -214v-17q-1 -7 -1 -11z" />
    <glyph glyph-name="four" unicode="4" horiz-adv-x="1428" 
d="M1332 347h-214v-349h-358v351h-668v274l617 911h411l1 -921h211v-266zM778 615v636l-411 -636h411z" />
    <glyph glyph-name="five" unicode="5" horiz-adv-x="1376" 
d="M1297 520q0 -244 -133 -385q-148 -157 -434 -157q-253 0 -407 109t-218 329l331 51q0 -87 82 -148q78 -58 179 -58q94 0 158 54q73 62 84 182q1 6 1 19q0 86 -64.5 151.5t-155.5 65.5q-80 0 -143.5 -30.5t-97.5 -86.5l-292 52l61 866h964l-41 -313h-668l-24 -335
q77 71 156 99.5t188 28.5q197 0 335.5 -145.5t138.5 -348.5z" />
    <glyph glyph-name="six" unicode="6" horiz-adv-x="1390" 
d="M1289 494q0 -209 -165.5 -361.5t-387.5 -152.5q-303 0 -463 190q-169 200 -169 598q0 206 67 378q73 188 207 293q149 117 356 117q173 0 282 -53q97 -47 161 -144q46 -70 96 -208l-309 -85q0 81 -54 147t-124 80q-30 6 -58 6q-127 0 -200 -122q-64 -107 -64 -253v-128
q79 97 138 129q74 40 207 40q213 0 348 -137q132 -134 132 -334zM931 484q0 100 -56 166q-61 71 -166 71q-97 0 -164.5 -70.5t-67.5 -169.5q0 -102 60 -170q64 -73 170 -73q103 0 163.5 68.5t60.5 177.5z" />
    <glyph glyph-name="seven" unicode="7" horiz-adv-x="1278" 
d="M1178 1254q-73 -83 -130 -168q-48 -72 -97 -165q-37 -71 -87 -178q-45 -97 -75 -223q-25 -103 -36 -204t-11 -174l1 -145h-411q0 146 24 266q19 96 74 258q76 223 166 371.5t253 319.5h-763l25 320l1067 2v-280z" />
    <glyph glyph-name="eight" unicode="8" horiz-adv-x="1415" 
d="M1307 464q0 -233 -153 -356q-158 -127 -469 -127q-241 0 -402 99q-190 117 -190 333q0 134 75 221q65 76 194 124q-98 58 -157.5 146t-59.5 181q0 18 1 27q24 210 172 329t375 119q134 0 248 -34q139 -42 216 -124q91 -98 91 -248q0 -121 -61 -200q-52 -67 -163 -120
q139 -56 204 -131q79 -91 79 -239zM829 951q49 20 80 71t31 109q0 83 -58 135q-68 61 -199 61q-75 0 -120 -29q-54 -35 -76 -125q-3 -15 -3 -28q0 -78 113 -139q53 -28 126 -50l66 -22zM967 395q-7 76 -71 130q-47 40 -123 66q-43 12 -85 25l-77 28l-85 -35q-20 -8 -45 -34
q-63 -64 -63 -145q0 -20 2 -31q13 -86 98 -134q75 -42 183 -42q107 0 184 42q83 45 83 118q-1 8 -1 12z" />
    <glyph glyph-name="nine" unicode="9" horiz-adv-x="1363" 
d="M1270 791q0 -196 -59 -368q-68 -199 -199 -312q-152 -131 -373 -131q-205 0 -338 105q-106 84 -145 214l-16 56l313 56q31 -82 68 -114q50 -43 147 -43q118 0 184 105q57 91 57 224l5 153q-73 -81 -154.5 -117.5t-189.5 -36.5q-198 0 -335 131q-140 134 -140 334
q0 270 170 400q145 111 392 111q223 0 368 -114q127 -100 190 -284q55 -162 55 -369zM896 1070q0 98 -66 166t-167 68q-100 0 -161.5 -65.5t-61.5 -168.5q0 -101 72 -165q68 -60 167 -60q90 0 153.5 66.5t63.5 158.5z" />
    <glyph glyph-name="colon" unicode=":" horiz-adv-x="540" 
d="M451 797h-346v347h346v-347zM445 8h-346v347h346v-347z" />
    <glyph glyph-name="semicolon" unicode=";" horiz-adv-x="533" 
d="M448 785h-346v348h346v-348zM444 31l-216 -385h-132l172 356h-163v348h339v-319z" />
    <glyph glyph-name="less" unicode="&#x3c;" horiz-adv-x="1272" 
d="M1181 804l-695 -247l690 -253v-289l-1082 407v271l1087 403v-292z" />
    <glyph glyph-name="equal" unicode="=" horiz-adv-x="1351" 
d="M1255 759h-1158v278h1158v-278zM1261 185h-1158v278h1158v-278z" />
    <glyph glyph-name="greater" unicode="&#x3e;" horiz-adv-x="1277" 
d="M1187 411l-1082 -407v290l689 253l-694 246v292l1087 -403v-271z" />
    <glyph glyph-name="question" unicode="?" horiz-adv-x="1246" 
d="M1150 1106q0 -156 -102 -279q-43 -52 -191 -169q-103 -82 -103 -135v-92h-289v64q0 149 27 214q5 13 66 95q20 27 87 74q74 52 100 82q48 55 48 121q0 74 -30 121.5t-96 69.5q-30 10 -59 10q-88 0 -154 -92q-51 -71 -56 -123l-6 -62l-305 37q0 215 157 360t390 145
q223 0 357 -96q159 -114 159 -345zM787 -1h-347l-1 348h348v-348z" />
    <glyph glyph-name="at" unicode="@" horiz-adv-x="1493" 
d="M1440 835q0 -214 -136 -381q-139 -171 -324 -171q-79 0 -118 78q-12 26 -23 79l-58 -65q-38 -43 -82 -63.5t-102 -20.5q-113 0 -185.5 90t-72.5 210q0 178 150 311q135 120 277 120q55 0 94.5 -21.5t54.5 -66.5l19 -54l39 119l164 4l-149 -551q-7 -26 -7 -52
q0 -28 9 -45.5t28 -17.5q118 0 218 155t100 327q0 222 -173 354q-158 121 -386 121q-245 0 -419 -174t-174 -419q0 -256 177.5 -438.5t431.5 -182.5q185 0 317 71q95 51 155 133q20 36 41 72h126l-56 -96q-81 -111 -200 -180q-167 -97 -387 -97q-294 0 -501 208t-207 502
q0 288 204 494t492 206q264 0 458 -153q205 -162 205 -405zM898 804q0 75 -29 121.5t-84 46.5q-94 0 -184 -158t-90 -309q0 -65 29 -108q34 -51 101 -51q95 0 180 174q77 158 77 284z" />
    <glyph glyph-name="A" unicode="A" horiz-adv-x="1488" 
d="M1448 0h-393l-90 308h-493l-97 -308h-317l497 1538h417zM880 600l-157 527l-161 -527h318z" />
    <glyph glyph-name="B" unicode="B" horiz-adv-x="1441" 
d="M1391 421q0 -190 -143 -308q-138 -114 -346 -114l-772 1v1538h834q148 0 267 -120q123 -124 123 -289q0 -132 -74 -217q-66 -76 -192 -115q140 -37 221.5 -135.5t81.5 -240.5zM986 1099q0 79 -45 118q-49 43 -157 43h-293v-333h311q86 0 135 48t49 124zM1014 474
q0 69 -43 118q-52 59 -143 59h-339v-365h323q96 0 149 49t53 139z" />
    <glyph glyph-name="C" unicode="C" horiz-adv-x="1499" 
d="M1409 539q-40 -258 -173 -397q-154 -161 -433 -161q-306 0 -505 216t-199 561q0 326 185 557q194 242 491 242q309 0 469 -173q140 -150 165 -427l-370 -19q0 136 -56 224q-66 104 -194 104q-161 0 -226 -133q-57 -117 -57 -381q0 -213 63 -337q73 -145 223 -145
q116 0 191.5 84.5t75.5 201.5z" />
    <glyph glyph-name="D" unicode="D" horiz-adv-x="1448" 
d="M1411 757q0 -329 -200.5 -543t-517.5 -214h-544v1538h516q361 0 560 -224q186 -210 186 -557zM1047 771q0 188 -91 317q-100 142 -268 142h-171v-922h174q165 0 265 144q91 131 91 319z" />
    <glyph glyph-name="E" unicode="E" horiz-adv-x="1299" 
d="M1255 0h-1095v1538h1095v-308h-735v-306h574v-296h-580v-320h741v-308z" />
    <glyph glyph-name="F" unicode="F" horiz-adv-x="1277" 
d="M1226 1230h-738l-1 -306l588 -1v-295h-588v-629l-356 1v1538l1095 -1v-307z" />
    <glyph glyph-name="G" unicode="G" horiz-adv-x="1456" 
d="M1370 1039l-349 -47q-13 118 -58 185q-56 82 -166 99q-10 2 -22.5 3t-23.5 1q-147 0 -222 -164q-62 -135 -62 -338q0 -31 1 -48t4 -53q19 -203 84 -298q71 -104 212 -104q100 0 173 55q84 64 84 175v38h-296v286h639l-2 -829h-166l-53 173q-92 -101 -179 -147
q-98 -52 -221 -52q-226 0 -381 115q-138 103 -209 289q-64 168 -64 378q0 214 72 393q77 193 221 302q158 120 375 120q272 0 426 -150q136 -132 183 -382z" />
    <glyph glyph-name="H" unicode="H" horiz-adv-x="1396" 
d="M1310 0h-367v628h-473v-628h-362l1 1538h365v-614h471v614h365v-1538z" />
    <glyph glyph-name="I" unicode="I" horiz-adv-x="615" 
d="M496 0h-363v1538h363v-1538z" />
    <glyph glyph-name="J" unicode="J" horiz-adv-x="929" 
d="M793 429q0 -249 -146 -364q-117 -92 -313 -92q-47 0 -152 11t-123 18v296l59 -7q35 -5 67 -8t56 -3h20q9 2 12 2q96 10 125 66t29 222v968h364z" />
    <glyph glyph-name="K" unicode="K" horiz-adv-x="1466" 
d="M1422 0h-409l-288 653l-215 -295v-358h-348v1538h353v-715l471 715h350l-368 -554z" />
    <glyph glyph-name="L" unicode="L" horiz-adv-x="1185" 
d="M1132 0h-977v1538h362v-1230h615v-308z" />
    <glyph glyph-name="M" unicode="M" horiz-adv-x="1829" 
d="M1749 0h-353l-3 1233l-378 -1233h-238l-364 1225l2 -1225h-298l3 1538h544l258 -922l276 922h551v-1538z" />
    <glyph glyph-name="N" unicode="N" horiz-adv-x="1342" 
d="M1249 0h-304l-583 1026v-1026h-285v1538h387l507 -899v899h278v-1538z" />
    <glyph glyph-name="O" unicode="O" horiz-adv-x="1505" 
d="M1416 769q0 -210 -66 -381q-73 -190 -210 -295q-152 -117 -369 -117q-320 0 -503 249q-164 223 -164 554q0 316 182 538q194 237 502 237q212 0 360 -116q134 -105 204 -292q64 -170 64 -377zM1040 782q0 128 -18 218q-24 119 -78 182q-65 76 -175 76q-112 0 -182 -85
q-57 -70 -84 -195q-21 -99 -21 -218t23 -218q29 -124 87 -193q71 -84 180 -84q110 0 174 83q53 68 76 199q18 101 18 235z" />
    <glyph glyph-name="P" unicode="P" horiz-adv-x="1368" 
d="M1325 1050q0 -198 -141 -340t-339 -142h-353v-568h-356l2 1538h706q199 0 340 -144t141 -344zM963 1047q0 92 -58 147q-61 58 -169 58h-241v-404h269q81 0 140 59t59 140z" />
    <glyph glyph-name="Q" unicode="Q" horiz-adv-x="1514" 
d="M1416 773q0 -232 -67 -394q-72 -173 -239 -314q-2 -18 -2 -24q0 -20 14 -45q17 -25 43 -35.5t59 -10.5q7 0 15.5 1t13.5 1l122 11v-273q-33 -8 -64.5 -12t-65.5 -4q-93 0 -135 9q-63 14 -114.5 57.5t-83.5 133.5q-24 68 -24 107l-57 -3q-199 0 -342 60q-175 74 -269 237
q-109 190 -109 502q0 316 181 537q194 237 502 237q211 0 359 -116q131 -103 200 -289q63 -170 63 -373zM1048 779q0 127 -18 217q-24 118 -78 181q-65 76 -175 76q-119 0 -188 -84q-56 -68 -81 -196q-18 -94 -18 -216q0 -119 23 -219q29 -124 87 -193q70 -83 180 -83
q109 0 174 84q53 69 76 198q18 101 18 235z" />
    <glyph glyph-name="R" unicode="R" horiz-adv-x="1451" 
d="M1362 0h-408l-232 628h-260v-628h-361v1538l731 -1q247 0 383 -130q127 -121 127 -320q0 -141 -67.5 -245t-196.5 -164zM966 1079q0 93 -64.5 145.5t-181.5 52.5h-258v-401h277q101 0 164 55t63 148z" />
    <glyph glyph-name="S" unicode="S" horiz-adv-x="1476" 
d="M1372 496q0 -230 -190 -378q-184 -143 -458 -143q-254 0 -410 113q-140 101 -202 292l-9 25l335 83l12 -39q17 -56 74 -107q64 -57 138 -67q48 -6 91 -6q115 0 181 42t66 109q0 48 -37 100q-29 40 -119 66q-42 12 -166.5 34.5t-174.5 42.5q-131 54 -194 107
q-84 71 -110 180q-18 75 -18 141q0 219 166 354q158 129 393 129q232 0 367 -77t210 -257l11 -26l-311 -105l-10 29q-25 73 -104 116q-72 39 -159 39q-75 0 -132 -29t-74 -84q-6 -21 -6 -40q0 -65 81 -107q59 -31 159 -49l110 -16q145 -29 236 -73q120 -57 182 -145
q72 -102 72 -254z" />
    <glyph glyph-name="T" unicode="T" horiz-adv-x="1307" 
d="M1206 1230h-382v-1230h-361v1230h-379v308h1122v-308z" />
    <glyph glyph-name="U" unicode="U" horiz-adv-x="1403" 
d="M1318 585q0 -187 -35 -295q-48 -147 -169 -221q-141 -86 -397 -86q-341 0 -491 164q-129 141 -129 418v973h390l-1 -848q0 -266 47 -341.5t207 -75.5q174 0 220.5 72t46.5 334l1 859h310v-953z" />
    <glyph glyph-name="V" unicode="V" horiz-adv-x="1424" 
d="M1386 1538l-470 -1538h-396l-468 1538h391l313 -1085l317 1085h313z" />
    <glyph glyph-name="W" unicode="W" horiz-adv-x="2087" 
d="M2034 1538l-374 -1538h-362l-252 1014l-247 -1014h-354l-396 1538h368l238 -1037l246 1037h343l263 -1034l226 1034h301z" />
    <glyph glyph-name="X" unicode="X" horiz-adv-x="1460" 
d="M1415 0h-414l-306 549l-309 -549h-349l477 815l-416 723h419l247 -466l256 466h341l-416 -720z" />
    <glyph glyph-name="Y" unicode="Y" horiz-adv-x="1414" 
d="M1349 1538l-484 -889v-649h-362v642l-466 896h412l286 -587l291 587h323z" />
    <glyph glyph-name="Z" unicode="Z" horiz-adv-x="1430" 
d="M1337 0h-1240v275l772 955h-714v308h1167v-280l-776 -950h791v-308z" />
    <glyph glyph-name="bracketleft" unicode="[" horiz-adv-x="666" 
d="M571 1540h-226v-1634l224 -1v-138h-481l3 1916h480v-143z" />
    <glyph glyph-name="backslash" unicode="\" horiz-adv-x="912" 
d="M817 -3h-225l-505 1542h230z" />
    <glyph glyph-name="bracketright" unicode="]" horiz-adv-x="685" 
d="M589 -238h-483v138h220v1635h-222v143h485v-1916z" />
    <glyph glyph-name="asciicircum" unicode="^" horiz-adv-x="1030" 
d="M949 1181h-241l-180 122l-179 -120h-238l414 334z" />
    <glyph glyph-name="underscore" unicode="_" horiz-adv-x="1326" 
d="M1336 -247h-1336v126h1336v-126z" />
    <glyph glyph-name="grave" unicode="`" horiz-adv-x="748" 
d="M648 1345l-54 -132l-503 184l67 187z" />
    <glyph glyph-name="a" unicode="a" horiz-adv-x="1246" 
d="M1150 0h-327l-14 91q-2 18 -3.5 32.5t-1.5 39.5q-17 -28 -50 -61q-54 -53 -117 -84q-87 -42 -187 -42q-153 0 -251 78q-110 88 -110 250q0 137 86 226q74 77 211 120q109 34 262 49l142 14v120q0 45 -49 76t-107 31q-87 0 -137.5 -43t-59.5 -118l-314 27l3 20
q28 171 201 260q145 75 341 75q167 0 276 -48q90 -40 136 -108q36 -53 41 -112l9 -95v-669q0 -24 1.5 -38.5t7.5 -43.5zM794 541l-103 -9q-91 -7 -166 -59q-85 -58 -85 -136q0 -50 39 -105q16 -23 41.5 -34t55.5 -11q79 0 144 61q72 67 72 165z" />
    <glyph glyph-name="b" unicode="b" horiz-adv-x="1245" 
d="M1176 571q0 -288 -119 -442q-115 -149 -323 -149q-126 0 -206 41.5t-154 137.5l-89 -159h-162v1560h338v-532l10 22q28 57 86 91q71 41 181 41q159 0 263 -93q91 -81 136 -230q39 -128 39 -288zM820 568q0 185 -33 271q-39 102 -133 102q-17 0 -35 -3
q-68 -12 -116.5 -74.5t-48.5 -127.5v-348q0 -65 43 -118q49 -61 122 -61q8 0 18.5 1.5t16.5 2.5q104 21 139 113q27 71 27 242z" />
    <glyph glyph-name="c" unicode="c" 
d="M1165 725l-320 -13q-10 105 -31 139q-37 61 -146 61q-105 0 -156 -108q-41 -87 -41 -220q0 -15 1 -33.5t3 -41.5q11 -122 36 -170q41 -80 147 -80q79 0 131 52t52 141l318 -20q-37 -208 -150 -317q-129 -125 -360 -125q-237 0 -391 143q-164 152 -164 404q0 256 147 436
q158 193 409 193q177 0 291 -66q98 -57 155 -164q45 -85 69 -211z" />
    <glyph glyph-name="d" unicode="d" horiz-adv-x="1259" 
d="M1122 0h-320v177q-59 -102 -124 -150q-76 -57 -180 -57h-25q-11 2 -16 2q-203 21 -296 179q-87 147 -87 425q0 142 40 270q47 150 133 234q101 98 248 98q91 0 166 -34q66 -30 110 -81l19 -28v525h331zM787 411v358q0 52 -44 109q-51 65 -113 65q-103 0 -157 -123
q-44 -101 -44 -245q0 -148 35 -237q47 -120 153 -120q72 0 121 58.5t49 134.5z" />
    <glyph glyph-name="e" unicode="e" horiz-adv-x="1271" 
d="M1187 520h-728v-98q0 -82 66.5 -143.5t153.5 -61.5q78 0 140 57q52 48 52 87v38l313 -20l-9 -26q-56 -170 -179 -265q-138 -107 -345 -107q-238 0 -397 170q-154 165 -154 400q0 252 135 430q153 201 412 201q235 0 387 -163t152 -413zM848 720q4 19 4 43q0 80 -49 136
q-53 60 -138 60q-82 0 -147 -62t-65 -143q0 -17 3 -34h392z" />
    <glyph glyph-name="f" unicode="f" horiz-adv-x="847" 
d="M788 1306h-110q-18 0 -41.5 -1t-46.5 -20q-19 -16 -26.5 -38t-7.5 -53v-70h201v-260h-198v-864h-330v865h-132v259h130l2 142q0 31 18 86q23 70 60 112q61 70 167 91q60 12 190 12l124 -7v-254z" />
    <glyph glyph-name="g" unicode="g" horiz-adv-x="1442" 
d="M1330 1100q-19 7 -36.5 9.5t-41.5 2.5h-13q-58 0 -91.5 -25t-33.5 -57l-1 -13q50 -58 68 -105t18 -115q0 -164 -150 -262q-136 -89 -330 -89q-27 0 -84 7t-83 7q-42 0 -68.5 -15.5t-33.5 -54.5q-2 -14 -2 -20q0 -53 59 -77q51 -21 152 -21h62.5t64.5 1q163 0 252 -15
q133 -22 200 -83q82 -74 82 -209q0 -137 -104 -226q-90 -77 -252 -114q-135 -31 -303 -31q-169 0 -262 12q-145 19 -221 70q-92 62 -92 177q0 76 55 131q46 46 132 80q-61 27 -98 80.5t-37 123.5q0 62 38 118.5t102 91.5l75 41q-93 47 -140 112q-52 72 -52 171
q0 172 166 266q144 82 360 82q79 0 167 -15t127 -31q0 60 28 114q33 63 91 87q15 6 65 12t94 6q51 0 71 -9v-215zM872 801q0 79 -44 121q-48 46 -151 46q-87 0 -134 -47t-47 -121q0 -75 46.5 -122.5t134.5 -47.5q92 0 143.5 47t51.5 124zM1012 -101q-9 56 -64 77
q-42 16 -121 16q-17 0 -53 -1t-53 -1q-27 0 -70 3q-101 7 -128 7q-70 0 -103 -14q-43 -18 -43 -64q0 -10 1 -15q9 -67 82 -91q50 -16 154 -16h60q142 0 218 13q121 21 121 76q0 7 -1 10z" />
    <glyph glyph-name="h" unicode="h" horiz-adv-x="1174" 
d="M1092 0h-334l-1 746q0 61 -40 106.5t-102 56.5q-14 2 -21 2q-72 0 -118 -80q-41 -72 -41 -164l5 -667h-336v1560h331v-561q100 182 304 182q155 0 257 -132q96 -124 96 -293v-756z" />
    <glyph glyph-name="i" unicode="i" horiz-adv-x="716" 
d="M531 1251h-336v309h336v-309zM532 0h-337v1155h337v-1155z" />
    <glyph glyph-name="j" unicode="j" horiz-adv-x="718" 
d="M529 1252h-332v308h332v-308zM529 37v-38t1 -38q0 -124 -25 -183q-21 -50 -68 -89q-53 -45 -113.5 -65t-131.5 -20q-32 0 -48 1.5t-67 7.5l-92 12v266q29 -13 63 -13q45 0 83.5 20t51.5 51q10 25 12.5 54.5t2.5 38.5v34l-1 1079h332v-1118z" />
    <glyph glyph-name="k" unicode="k" horiz-adv-x="1344" 
d="M1304 0h-377l-240 516l-181 -219v-297h-338l-1 1560h341v-923l418 518h333l-326 -398z" />
    <glyph glyph-name="l" unicode="l" horiz-adv-x="664" 
d="M489 0h-325v1560h325v-1560z" />
    <glyph glyph-name="m" unicode="m" horiz-adv-x="1802" 
d="M1699 0h-332v722q0 79 -23 116q-32 52 -119 52q-78 0 -125 -56q-43 -52 -43 -128l1 -706h-330v748q0 61 -36 100q-39 42 -107 42q-76 0 -120.5 -45.5t-44.5 -115.5v-729l-328 1v1154h310l1 -189q95 193 316 193q214 0 309 -193q51 96 133 142.5t195 46.5q154 0 238 -70
q104 -86 104 -279z" />
    <glyph glyph-name="n" unicode="n" horiz-adv-x="1181" 
d="M1094 0h-331l1 729q0 74 -32 118q-39 53 -118 53q-87 0 -135 -90q-40 -76 -40 -185v-625h-330l1 1155h314v-212q45 106 125.5 160t201.5 54q145 0 225 -62q69 -53 97 -157q21 -78 21 -204v-734z" />
    <glyph glyph-name="o" unicode="o" horiz-adv-x="1277" 
d="M1201 588q0 -273 -153 -446t-392 -173q-273 0 -420 186q-130 165 -130 426q0 255 131 418q147 183 415 183t416 -179q133 -161 133 -415zM845 549q0 116 -9 184q-14 106 -51 161q-46 68 -131 68q-117 0 -162 -104q-33 -76 -33 -233q0 -122 9 -191q14 -110 52 -167
q46 -70 131 -70q121 0 165 117q29 77 29 235z" />
    <glyph glyph-name="p" unicode="p" horiz-adv-x="1213" 
d="M1124 577q0 -157 -35 -279q-42 -145 -127 -223q-100 -92 -255 -92q-105 0 -169 37q-45 26 -84 82l-19 27v-507h-329l-1 1533h308v-182q64 100 118 137q71 49 190 49q403 0 403 -582zM785 581q0 139 -29 226q-40 120 -128 120q-12 0 -19 -1q-71 -9 -123 -56.5t-52 -109.5
v-381q0 -62 47 -107q43 -42 107 -54q15 -3 29 -3q89 0 133 126q35 100 35 240z" />
    <glyph glyph-name="q" unicode="q" horiz-adv-x="1234" 
d="M1152 -379h-334v515l-10 -22q-27 -55 -84 -88q-71 -41 -178 -41q-225 0 -337 192q-92 158 -92 407q0 282 117 434q114 147 317 147q124 0 205 -42q75 -39 148 -134l87 166h161v-1534zM825 423v341q0 65 -41 117q-47 59 -119 59q-8 0 -18.5 -1.5t-16.5 -2.5
q-101 -21 -136 -112q-27 -71 -27 -236q0 -183 32 -267q38 -100 130 -100q17 0 35 3q69 12 115 72.5t46 126.5z" />
    <glyph glyph-name="r" unicode="r" horiz-adv-x="796" 
d="M748 824q-75 0 -101 -5q-48 -9 -85 -46q-50 -49 -72.5 -137t-22.5 -203v-433h-325v1155h308v-228q5 22 16 49t17 37q66 98 109.5 131.5t92.5 33.5h63v-354z" />
    <glyph glyph-name="s" unicode="s" horiz-adv-x="1207" 
d="M1117 421q6 -33 6 -64q0 -162 -148.5 -269t-358.5 -107q-91 0 -180 20q-118 27 -192 78q-94 65 -121 167l-19 74l273 38l14 -41q17 -51 84.5 -79t149.5 -28q86 0 143 27q63 30 63 81q0 9 -1 13q-9 53 -110 74q-98 15 -195 31q-129 26 -173 43q-83 32 -138 103
q-39 51 -56.5 99.5t-17.5 110.5q0 187 148 286q128 86 323 86q200 0 303 -76q85 -63 153 -223l-237 -65l-15 43q-18 52 -80 80.5t-136 28.5q-70 0 -118.5 -25.5t-48.5 -72.5q0 -11 5 -28q14 -42 114 -67q32 -8 205 -36q132 -21 186 -49q76 -39 118 -102q39 -59 57 -151z" />
    <glyph glyph-name="t" unicode="t" horiz-adv-x="959" 
d="M864 0q-11 -6 -53.5 -10t-95.5 -4q-65 0 -128.5 5t-104.5 15q-90 21 -146.5 88.5t-56.5 159.5v632h-188v269h196l26 328l289 24v-352h245v-268h-245v-520q0 -35 14.5 -60.5t44.5 -39.5q9 -5 20.5 -7t22.5 -2q21 1 33 1l127 -10v-249z" />
    <glyph glyph-name="u" unicode="u" horiz-adv-x="1175" 
d="M1075 0h-313v194q-90 -214 -345 -214q-134 0 -230 90t-96 221v864h335v-752q0 -76 24 -111q29 -43 102 -43q94 0 146 72q42 58 42 134v700h335v-1155z" />
    <glyph glyph-name="v" unicode="v" horiz-adv-x="1012" 
d="M966 1155l-284 -1155h-300l-349 1155h320l187 -674l160 674h266z" />
    <glyph glyph-name="w" unicode="w" horiz-adv-x="1769" 
d="M1720 1155l-351 -1155h-315l-169 719l-188 -719h-300l-363 1155h360l196 -725l181 725h309l174 -729l199 729h267z" />
    <glyph glyph-name="x" unicode="x" horiz-adv-x="1189" 
d="M1135 0h-373l-227 383l-224 -383h-272l349 606l-311 549h374l176 -322l172 322h282l-314 -546z" />
    <glyph glyph-name="y" unicode="y" horiz-adv-x="1090" 
d="M1042 1155l-387 -1204q-41 -128 -83 -185q-35 -48 -95 -86q-46 -28 -118 -40q-55 -9 -117 -9h-11q-17 0 -31 0.5t-26 0.5l-78 8v254l44 -2q29 0 78 -5t71 -5q10 0 18 0.5t14 1.5q48 6 82 45t34 85q0 18 -6 36l-405 1105h354l213 -669l203 669h246z" />
    <glyph glyph-name="z" unicode="z" horiz-adv-x="1097" 
d="M1014 0h-910v243l503 681h-461v231h842v-216l-505 -690h531v-249z" />
    <glyph glyph-name="braceleft" unicode="{" horiz-adv-x="809" 
d="M725 -206h-160q-63 0 -106.5 19t-93.5 64q-37 32 -56 74q-26 57 -26 142l-1 462q0 40 -26 73q-35 45 -98 45h-55v189h30h17q48 0 65.5 6t35 22.5t27 30.5t9.5 32v488q0 91 55 164q34 45 87 75t91 30h205v-199h-103q-31 0 -53 -18.5t-28 -49.5v-501q0 -50 -40 -96
q-23 -28 -73 -55t-83 -27q33 0 76 -16.5t58 -35.5q30 -40 44.5 -76.5t14.5 -82.5l4 -499q4 -22 22 -37q10 -10 26 -15.5t27 -5.5h108v-202z" />
    <glyph glyph-name="bar" unicode="|" horiz-adv-x="408" 
d="M333 -378h-235v1912h234z" />
    <glyph glyph-name="braceright" unicode="}" horiz-adv-x="815" 
d="M732 681h-55q-63 0 -98 -45q-14 -18 -20 -34t-6 -39v-462q0 -85 -26 -141q-19 -41 -57 -75q-49 -43 -93.5 -63t-106.5 -20h-160v203h108q13 0 27.5 4.5t24.5 14.5t15.5 18t7.5 20v497q0 48 16 86q13 30 47 75q15 20 57.5 36t76.5 16q-32 0 -82.5 26.5t-74.5 55.5
q-39 48 -39 96v502q-6 29 -28 48t-53 19h-103v200h204q39 0 91.5 -30t87.5 -76q55 -73 55 -163v-488q0 -19 9 -33.5t28.5 -32t44.5 -21.5t71 -4h31v-190z" />
    <glyph glyph-name="asciitilde" unicode="~" horiz-adv-x="1013" 
d="M928 1486q0 -120 -35 -183q-48 -87 -166 -87q-43 0 -120.5 40.5t-149.5 80.5q-82 43 -117 43q-30 0 -47.5 -17.5t-17.5 -60.5v-35h-158q10 116 50 182q52 86 151 86q72 0 150 -45q64 -42 128 -83q76 -46 138 -46q25 0 37 46q8 29 8 51l-1 28h150z" />
    <glyph glyph-name="Adieresis" unicode="&#xc4;" horiz-adv-x="1573" 
d="M749 1799q0 -54 -36.5 -95.5t-89.5 -41.5t-91 39t-38 92t36 91t87 38q53 0 92.5 -35.5t39.5 -87.5zM1111 1793q0 -53 -33.5 -93.5t-84.5 -40.5q-54 0 -94.5 34.5t-40.5 85.5q0 55 35.5 95t88.5 40q51 0 90 -35t39 -86zM1487 -3h-392l-90 321h-494l-96 -321h-318l497 1542
h417zM920 604l-158 526l-161 -526h319z" />
    <glyph glyph-name="Aring" unicode="&#xc5;" horiz-adv-x="1564" 
d="M1048 1868q0 -94 -62.5 -163.5t-153.5 -69.5q-101 0 -176 68t-75 166q0 95 68 164t163 69q97 0 166.5 -68.5t69.5 -165.5zM1488 -5h-393l-90 316h-493l-97 -311h-317l497 1538h417zM986 1878q0 68 -52 116t-122 48t-119.5 -52.5t-49.5 -124.5q0 -70 53.5 -118.5
t125.5 -48.5q69 0 116.5 53.5t47.5 126.5zM920 597l-157 526l-161 -526h318z" />
    <glyph glyph-name="Ccedilla" unicode="&#xc7;" horiz-adv-x="1501" 
d="M1401 534q0 -73 -22 -139q-26 -79 -104 -190q-65 -93 -190 -158q-138 -72 -284 -72l-26 -65q89 0 148 -41q67 -47 67 -133q0 -72 -64.5 -121.5t-159.5 -49.5q-46 0 -89 11.5t-90 37.5l-47 27l39 88l33 -17q32 -16 68 -26t64 -10q33 0 52 13.5t19 42.5q0 42 -29.5 66.5
t-83.5 24.5q-15 0 -23 -1l-49 -5l53 161l-80 17q-208 43 -349.5 259.5t-141.5 497.5q0 339 157 556q177 244 500 244q213 0 356 -85q127 -76 197 -217q61 -124 76 -290l-376 -25q1 6 1 14v12q0 109 -56 196q-68 106 -184 106q-160 0 -225 -133q-57 -117 -57 -380
q0 -214 62 -338q73 -145 223 -145q112 0 187 85t75 201z" />
    <glyph glyph-name="Eacute" unicode="&#xc9;" horiz-adv-x="1276" 
d="M960 1844l-513 -191l-58 134l496 244zM1191 0h-1093l-2 1536h1095v-302h-735v-310h574v-297h-581v-319h742v-308z" />
    <glyph glyph-name="Ntilde" unicode="&#xd1;" horiz-adv-x="1371" 
d="M1113 1929q0 -120 -35 -184q-48 -87 -165 -87q-43 0 -121 40.5t-150 80.5q-82 43 -116 43q-30 0 -48 -17.5t-18 -59.5v-36h-158q10 117 50 183q52 86 151 86q72 0 150 -45l128 -84q76 -46 138 -46q25 0 37 46q8 30 8 51l-1 29h150zM1289 0h-303l-589 1038v-1038h-280
v1540h387l507 -895v895h278v-1540z" />
    <glyph glyph-name="Odieresis" unicode="&#xd6;" horiz-adv-x="1506" 
d="M716 1767q0 -55 -37 -96t-90 -41t-91 39t-38 93q0 52 36.5 90.5t87.5 38.5q53 0 92.5 -35.5t39.5 -88.5zM1077 1762q0 -54 -33 -94.5t-84 -40.5q-54 0 -94.5 34.5t-40.5 86.5q0 53 35.5 93.5t87.5 40.5t90.5 -34.5t38.5 -85.5zM1418 766q0 -211 -66 -382
q-73 -189 -210 -295q-153 -118 -369 -118q-321 0 -504 250q-164 224 -164 556q0 315 182 537q194 237 502 237q212 0 361 -117q134 -105 204 -291q64 -170 64 -377zM1042 780q0 127 -18 217q-24 120 -78 183q-65 76 -175 76q-112 0 -182 -85q-57 -70 -84 -196
q-21 -99 -21 -218q0 -118 23 -218q28 -124 87 -193q71 -84 180 -84t173 83q54 69 77 199q18 100 18 236z" />
    <glyph glyph-name="Udieresis" unicode="&#xdc;" horiz-adv-x="1419" 
d="M704 1818q0 -54 -36.5 -95.5t-89.5 -41.5t-91 39t-38 92t36 91t87 38q53 0 92.5 -35.5t39.5 -87.5zM1066 1812q0 -53 -33.5 -93.5t-84.5 -40.5q-54 0 -94.5 34.5t-40.5 85.5q0 55 35.5 95t88.5 40q51 0 90 -35t39 -86zM1328 584q0 -187 -36 -296q-48 -146 -170 -220
q-143 -87 -398 -87q-341 0 -491 164q-129 141 -129 419v973h389l-1 -848q0 -266 47.5 -342t207.5 -76q173 0 220 72.5t47 333.5l1 860h311z" />
    <glyph glyph-name="aacute" unicode="&#xe1;" 
d="M948 1402l-514 -191l-58 134l496 244zM1161 -1h-328q-1 7 -6.5 39t-7 48t-3.5 35.5t-2 37.5q-18 -29 -50 -61q-52 -52 -116 -83q-87 -42 -187 -42q-154 0 -251 77q-110 88 -110 251q0 136 86 226q74 77 210 120q109 34 262 49l143 13v120q0 46 -48.5 77t-107.5 31
q-87 0 -137.5 -43t-60.5 -119l-314 27l4 20q28 170 201 260q146 76 340 76q167 0 276 -48q89 -39 136 -108q36 -53 42 -112l9 -96v-668q0 -45 9 -85q1 -12 4 -22t7 -20zM804 538l-102 -9q-91 -8 -166 -59q-85 -58 -85 -135q0 -25 9.5 -51.5t29.5 -54.5q16 -23 41.5 -34
t55.5 -11q79 0 144 61q72 67 72 165z" />
    <glyph glyph-name="agrave" unicode="&#xe0;" horiz-adv-x="1265" 
d="M965 1381l-54 -132l-504 184l67 187zM1188 -1h-328q-1 7 -6.5 39t-7 48t-3.5 35.5t-2 37.5q-18 -29 -50 -61q-52 -52 -116 -83q-87 -42 -187 -42q-154 0 -251 77q-110 88 -110 251q0 136 86 226q74 77 210 120q109 34 262 49l143 13v120q0 46 -48.5 77t-107.5 31
q-87 0 -137.5 -43t-60.5 -119l-314 27l4 20q28 170 201 260q146 76 340 76q167 0 276 -48q89 -39 136 -108q36 -53 42 -112l9 -96v-668q0 -45 9 -85q1 -12 4 -22t7 -20zM831 538l-102 -9q-91 -8 -166 -59q-85 -58 -85 -135q0 -25 9.5 -51.5t29.5 -54.5q16 -23 41.5 -34
t55.5 -11q79 0 144 61q72 67 72 165z" />
    <glyph glyph-name="acircumflex" unicode="&#xe2;" horiz-adv-x="1263" 
d="M1088 1264h-241l-180 121l-179 -120h-238l414 334zM1175 -3h-327q-4 21 -7 37.5t-7 48.5q0 17 -2.5 42t-2.5 33q-17 -28 -50 -61q-54 -53 -117 -84q-87 -42 -187 -42q-153 0 -251 78q-110 88 -110 250q0 137 86 226q74 77 211 120q109 34 262 49l142 14v120q0 45 -49 76
t-107 31q-87 0 -137.5 -43t-59.5 -118l-314 27l3 20q28 170 202 260q145 75 340 75q167 0 276 -48q90 -40 136 -108q36 -53 41 -112l9 -95v-669q0 -25 2 -41t7 -44zM819 536l-102 -9q-92 -8 -166 -58q-85 -58 -85 -136q0 -24 9.5 -51.5t29.5 -54.5q16 -23 41.5 -34t55.5 -11
q79 0 144 61q72 67 72 165z" />
    <glyph glyph-name="adieresis" unicode="&#xe4;" horiz-adv-x="1272" 
d="M607 1394q0 -55 -36.5 -96.5t-89.5 -41.5t-91 39t-38 93q0 52 36.5 90.5t86.5 38.5q54 0 93 -35.5t39 -87.5zM969 1388q0 -53 -34 -94t-84 -41q-53 0 -93.5 34.5t-40.5 86.5q0 54 35.5 94.5t87.5 40.5q51 0 90 -35t39 -86zM1181 -3h-328q-1 7 -6.5 38.5t-7 48.5
t-3.5 36.5t-2 37.5q-16 -27 -50 -61q-54 -54 -116 -84q-87 -42 -187 -42q-154 0 -252 78q-110 88 -110 250q0 137 86 226q74 77 211 120q109 34 262 49l143 14v120q0 45 -49 76t-107 31q-87 0 -137.5 -43t-60.5 -118l-314 27l3 20q28 170 202 260q145 75 340 75
q167 0 276 -48q89 -39 136 -108q36 -53 42 -112l8 -95v-669q0 -25 2 -41t7 -44q2 -12 6 -23t6 -19zM824 536l-102 -9q-92 -8 -166 -58q-85 -58 -85 -136q0 -24 9.5 -51.5t29.5 -54.5q16 -23 41.5 -34t55.5 -11q79 0 144 61q72 67 72 165z" />
    <glyph glyph-name="atilde" unicode="&#xe3;" horiz-adv-x="1254" 
d="M1058 1482q0 -119 -35 -183q-48 -87 -165 -87q-43 0 -121 40.5t-150 80.5q-82 43 -116 43q-30 0 -46 -16q-20 -20 -20 -62v-35h-157q0 109 46 183q54 86 154 86q72 0 150 -45l128 -84q76 -46 138 -46q25 0 37 46q8 30 8 51v28h149zM1155 -3h-328q-1 7 -6.5 38.5t-7 48.5
t-3.5 36.5t-2 37.5q-16 -27 -50 -61q-54 -54 -116 -84q-87 -42 -187 -42q-153 0 -251 78q-110 88 -110 250q0 136 86 226q74 77 210 120q109 34 262 49l143 14v120q0 45 -49 76t-107 31q-87 0 -137.5 -43t-60.5 -118l-314 27l4 20q28 171 201 260q145 75 340 75
q167 0 276 -48q89 -39 136 -108q36 -53 42 -112l9 -95v-669q0 -45 9 -85q1 -8 3 -16q1 -2 8 -26zM798 536l-102 -9q-92 -8 -166 -58q-85 -58 -85 -136q0 -24 9.5 -51.5t29.5 -54.5q16 -23 41.5 -34t55.5 -11q79 0 144 61q72 67 72 165z" />
    <glyph glyph-name="aring" unicode="&#xe5;" horiz-adv-x="1258" 
d="M904 1507q0 -94 -62.5 -163t-153.5 -69q-101 0 -176 68t-75 166q0 94 68 163t163 69q97 0 166.5 -68.5t69.5 -165.5zM1156 -3h-327q-4 21 -7 37.5t-6 41.5t-4.5 40.5t-1.5 41.5q-17 -28 -50 -61q-54 -53 -117 -84q-87 -42 -187 -42q-153 0 -251 78q-110 88 -110 250
q0 137 86 226q74 77 211 120q109 34 262 49l142 14v120q0 45 -49 76t-107 31q-87 0 -137.5 -43t-59.5 -118l-314 27l3 20q28 171 201 260q145 75 341 75q167 0 276 -48q90 -40 136 -108q36 -53 41 -112l9 -95v-669q0 -25 2 -41t7 -44zM842 1518q0 68 -51.5 115.5
t-122.5 47.5t-120 -52t-49 -124q0 -70 53.5 -118.5t125.5 -48.5q69 0 116.5 53.5t47.5 126.5zM800 536l-103 -9q-91 -7 -166 -59q-85 -58 -85 -136q0 -50 39 -105q16 -23 41.5 -34t55.5 -11q79 0 144 61q72 67 72 165z" />
    <glyph glyph-name="ccedilla" unicode="&#xe7;" horiz-adv-x="1240" 
d="M1144 721l-308 -14q0 93 -36 143q-43 59 -135 59q-112 0 -162 -119q-38 -90 -38 -237q0 -103 5 -139q11 -77 47 -116q45 -48 136 -48q83 0 133 59q47 55 47 137l308 -19q0 -67 -22 -126q-16 -41 -59 -116q-55 -91 -163.5 -150.5t-237.5 -59.5l-20 -65l82 -3
q47 0 89.5 -49.5t42.5 -106.5q0 -10 -1 -15q-9 -77 -82 -125q-69 -45 -158 -45q-65 0 -121 27l-90 45l39 84l93 -28q39 -12 75 -12q31 0 50.5 11t21.5 26.5t2 24.5q0 41 -42 62q-34 17 -85 17h-64l53 157l-84 20q-171 40 -272 200q-96 152 -96 353q0 252 136 421
q149 185 406 185q250 0 372 -123q99 -100 138 -315z" />
    <glyph glyph-name="eacute" unicode="&#xe9;" horiz-adv-x="1294" 
d="M934 1464l-513 -191l-58 134l496 244zM1194 526h-728v-98q0 -81 66 -143t153 -62q78 0 140 57q53 49 53 87l-1 38l313 -19l-9 -27q-56 -170 -179 -265q-138 -107 -345 -107q-237 0 -396 170q-154 165 -154 400q0 252 135 430q153 201 412 201q234 0 386 -163t152 -413z
M838 732q4 19 4 42q0 80 -49 136q-53 61 -138 61q-82 0 -147 -62t-65 -143q0 -17 3 -34h392z" />
    <glyph glyph-name="egrave" unicode="&#xe8;" horiz-adv-x="1276" 
d="M916 1372l-54 -132l-504 184l68 187zM1187 520l-728 1v-99q0 -82 66.5 -143.5t153.5 -61.5q78 0 140 57q52 48 52 87v38l313 -20l-9 -26q-56 -170 -179 -265q-138 -107 -345 -107q-238 0 -397 170q-154 165 -154 400q0 252 135 430q153 201 412 201q235 0 387 -163
t152 -413zM848 720q4 19 4 43q0 80 -49 136q-53 60 -138 60q-82 0 -147 -62t-65 -143q0 -17 3 -34h392z" />
    <glyph glyph-name="ecircumflex" unicode="&#xea;" horiz-adv-x="1282" 
d="M1070 1257h-241l-180 121l-179 -120h-238l414 334zM1181 520l-728 -1v-97q0 -81 66 -143t153 -62q78 0 140 57q53 49 53 87l-1 38l313 -20l-9 -26q-56 -170 -179 -265q-138 -107 -345 -107q-237 0 -396 170q-154 165 -154 400q0 252 135 430q153 201 412 201
q234 0 386 -163t152 -413zM842 720q4 19 4 41q0 81 -49 137q-53 61 -139 61q-82 0 -146.5 -62.5t-64.5 -142.5q0 -17 3 -34h392z" />
    <glyph glyph-name="edieresis" unicode="&#xeb;" horiz-adv-x="1284" 
d="M587 1455q0 -55 -36.5 -96.5t-89.5 -41.5t-91 39t-38 93q0 53 36 91t87 38q54 0 93 -35.5t39 -87.5zM949 1449q0 -53 -34 -94t-84 -41q-53 0 -93.5 34.5t-40.5 86.5q0 54 35.5 94.5t87.5 40.5q51 0 90 -35t39 -86zM1181 533l-728 1v-98q0 -82 66 -144t153 -62
q78 0 140 57q53 49 53 87l-1 38l313 -19l-9 -27q-57 -170 -179 -265q-138 -107 -345 -107q-237 0 -396 170q-154 165 -154 401q0 253 135 430q152 200 412 200q234 0 386 -163t152 -413zM842 734q4 19 4 41q0 81 -49 137q-53 61 -139 61q-82 0 -146.5 -62.5t-64.5 -142.5
q0 -17 3 -34h392z" />
    <glyph glyph-name="iacute" unicode="&#xed;" horiz-adv-x="720" 
d="M632 1496l-513 -191l-59 134l496 244zM542 -7h-337v1160h337v-1160z" />
    <glyph glyph-name="igrave" unicode="&#xec;" horiz-adv-x="721" 
d="M656 1387l-84 -122l-474 173l68 188zM543 -2h-336v1155h336v-1155z" />
    <glyph glyph-name="icircumflex" unicode="&#xee;" horiz-adv-x="715" 
d="M787 1288h-241l-180 121l-179 -120h-238l414 334zM539 -4h-337v1155h337v-1155z" />
    <glyph glyph-name="idieresis" unicode="&#xef;" horiz-adv-x="715" 
d="M321 1429q0 -54 -36.5 -95.5t-89.5 -41.5t-91 39t-38 93q0 53 36 91t87 38q54 0 93 -35.5t39 -88.5zM683 1424q0 -53 -34 -94t-84 -41q-54 0 -94.5 34.5t-40.5 86.5q0 54 36 94t88 40q51 0 90 -35t39 -85zM554 -2h-336v1155h336v-1155z" />
    <glyph glyph-name="ntilde" unicode="&#xf1;" horiz-adv-x="1171" 
d="M967 1488q0 -156 -56 -218q-47 -52 -138 -52q-43 0 -121 40.5t-150 80.5q-82 43 -116 43q-30 0 -46 -16q-20 -20 -20 -62v-35h-157q0 109 46 182q54 86 154 86q72 0 150 -45q64 -42 128 -83q76 -46 138 -46q25 0 37 46q8 29 8 51l-1 28h144zM1081 -1h-329l-1 724
q0 74 -32 118q-38 52 -118 52q-87 0 -135 -90q-40 -76 -40 -185l1 -619h-329l-1 1135h314v-198q45 106 125.5 160t201.5 54q145 0 225 -62q69 -53 97 -157q21 -78 21 -204v-728z" />
    <glyph glyph-name="oacute" unicode="&#xf3;" horiz-adv-x="1264" 
d="M906 1419l-513 -191l-58 134l495 244zM1163 580q0 -266 -148 -433.5t-382 -167.5q-264 0 -407 181q-127 161 -127 413q0 249 127 407q142 177 403 177t404 -173q130 -157 130 -404zM816 543q0 118 -8 179q-13 102 -50 156q-44 66 -127 66q-113 0 -157 -102
q-32 -75 -32 -226q0 -117 9 -186q14 -107 50 -162q44 -68 127 -68t128 55q36 44 50 131q10 63 10 157z" />
    <glyph glyph-name="ograve" unicode="&#xf2;" horiz-adv-x="1267" 
d="M938 1378l-54 -132l-504 184l67 187zM1169 585q0 -265 -148 -432.5t-381 -167.5q-265 0 -407 180q-127 161 -127 414q0 248 127 406q142 177 402 177q261 0 404 -173q130 -157 130 -404zM823 548q0 111 -9 179q-14 104 -49 156q-44 66 -127 66q-113 0 -157 -101
q-33 -76 -33 -227q0 -116 9 -185q14 -106 50 -161q45 -69 127 -69q119 0 161 114q28 75 28 228z" />
    <glyph glyph-name="ocircumflex" unicode="&#xf4;" 
d="M1035 1256h-241l-180 121l-179 -120h-238l414 334zM1163 579q0 -266 -148 -433.5t-382 -167.5q-264 0 -407 180q-127 160 -127 414q0 248 127 406q142 177 403 177t404 -173q130 -157 130 -403zM816 541q0 118 -8 179q-13 103 -50 157q-44 66 -127 66q-113 0 -157 -102
q-32 -75 -32 -227q0 -116 9 -185q14 -106 50 -161q45 -69 127 -69q119 0 161 114q27 72 27 228z" />
    <glyph glyph-name="odieresis" unicode="&#xf6;" horiz-adv-x="1257" 
d="M570 1424q0 -54 -36.5 -95.5t-89.5 -41.5t-91 39t-38 92q0 52 36.5 90.5t87.5 38.5q53 0 92 -35.5t39 -87.5zM932 1418q0 -53 -33.5 -93.5t-84.5 -40.5q-53 0 -93.5 34.5t-40.5 85.5q0 54 35.5 94.5t87.5 40.5q51 0 90 -35t39 -86zM1169 587q0 -265 -148 -433t-381 -168
q-264 0 -407 181q-127 161 -127 413q0 247 127 406q143 178 402 178q261 0 404 -173q130 -157 130 -404zM823 549q0 112 -9 180q-14 104 -49 156q-44 66 -127 66q-113 0 -157 -102q-33 -76 -33 -226q0 -117 9 -186q14 -107 50 -162q44 -68 127 -68q119 0 161 114
q28 75 28 228z" />
    <glyph glyph-name="otilde" unicode="&#xf5;" horiz-adv-x="1259" 
d="M1023 1488q0 -120 -35 -183q-48 -87 -166 -87q-43 0 -120.5 40.5t-149.5 80.5q-82 43 -117 43q-30 0 -47.5 -17.5t-17.5 -60.5v-35h-158q10 117 50 183q52 86 151 86q72 0 150 -45l128 -84q76 -46 138 -46q25 0 37 46q8 29 8 51l-1 28h150zM1184 577q0 -266 -148 -433.5
t-382 -167.5q-264 0 -407 181q-127 161 -127 413q0 248 127 406q143 178 403 178q261 0 404 -173q130 -157 130 -404zM837 539q0 119 -8 180q-13 101 -50 156q-44 66 -127 66q-113 0 -157 -102q-33 -76 -33 -226q0 -118 9 -186q14 -106 51 -162q45 -68 127 -68q83 0 128 55
q36 44 50 131q10 62 10 156z" />
    <glyph glyph-name="uacute" unicode="&#xfa;" horiz-adv-x="1170" 
d="M859 1431l-514 -191l-58 134l496 244zM1081 -3h-312v195q-90 -213 -345 -213q-135 0 -231 90t-96 220v864h336l-1 -752q0 -75 24 -110q29 -43 102 -43q94 0 146 71q42 58 42 134v698h335v-1154z" />
    <glyph glyph-name="ugrave" unicode="&#xf9;" horiz-adv-x="1179" 
d="M915 1367l-54 -133l-503 184l67 188zM1088 -1h-313v195q-90 -213 -345 -213q-135 0 -230.5 89.5t-95.5 220.5v863h335v-751q0 -76 24 -111q29 -43 102 -43q94 0 146 72q42 58 42 134v698h335v-1154z" />
    <glyph glyph-name="ucircumflex" unicode="&#xfb;" horiz-adv-x="1178" 
d="M1003 1292h-242l-179 121l-180 -120h-237l414 334zM1081 -1h-312v195q-90 -213 -345 -213q-135 0 -231 90t-96 220v863h336l-1 -751q0 -76 24 -111q29 -43 102 -43q94 0 146 72q42 58 42 134v698h335v-1154z" />
    <glyph glyph-name="udieresis" unicode="&#xfc;" horiz-adv-x="1176" 
d="M541 1436q0 -55 -36.5 -96.5t-89.5 -41.5t-91 39t-38 93q0 52 36.5 90.5t87.5 38.5q53 0 92 -36t39 -87zM903 1430q0 -53 -33.5 -93.5t-84.5 -40.5q-53 0 -93.5 34.5t-40.5 85.5q0 54 35.5 94.5t87.5 40.5q51 0 90 -35t39 -86zM1081 -1h-312v195q-90 -213 -345 -213
q-135 0 -231 90t-96 220v863h336l-1 -751q0 -76 24 -111q29 -43 102 -43q94 0 146 72q42 58 42 134v698h335v-1154z" />
    <glyph glyph-name="dagger" unicode="&#x2020;" horiz-adv-x="1278" 
d="M1210 877l-468 76l16 -36q8 -16 10 -19q5 -8 15 -17l46 -42q-11 -58 -15 -83q-10 -55 -14 -83q-33 -206 -45.5 -355t-12.5 -350l-13 -337h-136l-14 335q0 134 -8 232t-25.5 227t-34.5 251l-23 171l43 33q11 8 20 19t19 23l24 31l-466 -75l25 148l-22 144l463 -80l-82 458
l155 -29l165 24l-91 -455l468 81l-29 -147z" />
    <glyph glyph-name="degree" unicode="&#xb0;" horiz-adv-x="660" 
d="M571 1303q0 -94 -62.5 -163t-153.5 -69q-101 0 -176 68t-75 165q0 95 68 164t163 69q97 0 166.5 -68.5t69.5 -165.5zM509 1313q0 69 -51.5 116.5t-122.5 47.5q-70 0 -119.5 -52.5t-49.5 -124.5q0 -69 53.5 -117.5t125.5 -48.5q69 0 116.5 53.5t47.5 125.5z" />
    <glyph glyph-name="cent" unicode="&#xa2;" horiz-adv-x="1226" 
d="M1123 922l-298 -14q0 85 -47 140q-52 61 -141 61q-115 0 -163 -104q-36 -78 -36 -223q0 -136 42 -217q52 -100 157 -100q13 0 20 1q88 0 130 60q35 50 35 134l295 -23q0 -81 -31 -147q-27 -58 -90 -125q-36 -39 -106 -79q-87 -50 -166 -59v-290h-187v289l-65 19
q-145 42 -235 143q-75 84 -109 202q-27 94 -27 198q0 176 64 299q53 101 145 163q68 46 157 68l68 18v237h189v-237q69 -6 145 -41q63 -29 97 -60q67 -62 106 -131q51 -89 51 -182z" />
    <glyph glyph-name="sterling" unicode="&#xa3;" horiz-adv-x="1475" 
d="M1393 406q-24 -121 -103.5 -219.5t-168 -143.5t-208.5 -45h-802v291h139q86 0 144 79q51 69 51 148q0 17 1 32t2 29q0 25 -2 44t-10 54l-4 17h-213v241h173q-9 39 -11.5 68.5t-2.5 79.5q0 233 114 350q119 122 368 122q159 0 272 -74.5t175 -217.5l-288 -115q0 47 -42 95
q-47 54 -105 54q-8 -1 -12 -1q-69 -7 -104 -53q-30 -40 -30 -104q0 -15 1 -23l17 -180h253v-242h-228v-80q0 -94 -56 -194q-23 -41 -47.5 -70t-62.5 -59l247 3q62 0 107.5 26.5t83.5 80.5q32 46 41 97z" />
    <glyph glyph-name="section" unicode="&#xa7;" horiz-adv-x="1266" 
d="M1179 58q0 -205 -166 -325q-150 -109 -367 -109q-184 0 -313 71q-154 85 -236 273l281 49l35 -51q38 -56 110.5 -86t150.5 -30q90 0 149 34q65 37 65 100q0 106 -193 185q-342 141 -359 151q-193 114 -193 305q0 95 53 201q38 75 92 138q-56 57 -81 115t-25 135
q0 167 145 275q135 101 320 101q176 0 300 -68q132 -72 206 -222l-239 -61l-25 44q-25 45 -88 71t-133 26q-76 0 -132 -27.5t-56 -77.5q-1 -12 -1 -17q0 -65 87 -110q21 -11 171 -65q245 -90 335 -182q82 -84 82 -228q0 -96 -32.5 -171t-105.5 -139q85 -65 121 -128
q42 -73 42 -177zM872 604q0 37 -33 78q-36 45 -86 65l-243 99q-37 -13 -62 -43.5t-25 -57.5q0 -8 -1 -21t-1 -15q0 -36 17 -60q25 -36 90 -63l265 -113q79 41 79 131z" />
    <glyph glyph-name="bullet" unicode="&#x2022;" horiz-adv-x="957" 
d="M863 586q0 -160 -110.5 -275.5t-268.5 -115.5q-161 0 -276.5 113.5t-115.5 273.5q0 159 111.5 272.5t269.5 113.5q160 0 275 -112t115 -270z" />
    <glyph glyph-name="paragraph" unicode="&#xb6;" horiz-adv-x="1338" 
d="M1252 1383h-185v-1772h-155v1778h-193v-1778h-157v968q-202 0 -323 123q-129 131 -129 370q0 176 125 317q136 154 335 154h682v-160z" />
    <glyph glyph-name="germandbls" unicode="&#xdf;" horiz-adv-x="1563" 
d="M1466 376q0 -209 -162 -320q-140 -96 -355 -96q-66 0 -154.5 14.5t-132.5 34.5l89 214l103 -26q51 -14 104 -14q72 0 119 25q54 29 70 87q3 14 3 26q0 61 -87 117q-48 31 -179 85q-116 48 -144 69q-61 47 -87 96t-26 126q0 57 43.5 129t88.5 98q97 22 142 45q71 37 71 98
v11q-6 59 -60 97.5t-124 38.5q-91 0 -152 -62q-72 -74 -72 -211v-1201h-352v886h-121v244h121q0 98 15.5 168t58.5 145q76 135 243 205q146 61 324 61q66 0 125 -9q123 -18 226 -113q110 -102 110 -221q0 -63 -26.5 -115t-72.5 -90q-68 -56 -136 -77q-89 -20 -154 -39
q-14 -5 -27 -9.5t-13 -11.5q0 -8 25 -19q34 -15 98 -31q173 -44 301 -152q157 -132 157 -303z" />
    <glyph glyph-name="registered" unicode="&#xae;" horiz-adv-x="1686" 
d="M843 0q-239 0 -415 110q-161 101 -249 276q-83 166 -83 361q0 304 186 513q208 234 561 234q239 0 415 -110q161 -101 249 -277q83 -166 83 -360q0 -305 -186 -514q-207 -233 -561 -233zM843 80q315 0 500 208q167 188 167 459t-166 458q-185 209 -501 209
q-315 0 -500 -208q-167 -188 -167 -459t167 -459q185 -208 500 -208zM1200 288h-93q-4 0 -7 1q-21 42 -22.5 146t-6.5 133q-14 76 -69 105q-23 12 -47 16.5t-51 4.5h-37h-239v-406h-87v897h329q144 0 222 -42q106 -57 106 -192q0 -83 -37.5 -137t-110.5 -86q44 -24 49 -28
q22 -16 37.5 -46t21 -60t5.5 -65q0 -14 -1 -42t-1 -43q0 -34 3.5 -61.5t15.5 -59.5q3 -9 6 -14q7 -11 14 -21zM1112 941q0 94 -72 136q-57 33 -156 33h-256l1 -340h251q101 0 158 32q74 42 74 139z" />
    <glyph glyph-name="copyright" unicode="&#xa9;" horiz-adv-x="1681" 
d="M837 0q-239 0 -415 110q-162 101 -250 276q-83 165 -83 361q0 193 83 359q89 177 249 277q178 111 416 111t414 -110q161 -101 249 -277q83 -166 83 -360q0 -195 -82 -360q-87 -176 -248 -276q-177 -111 -416 -111zM837 80q314 0 499 208q167 188 167 459t-166 458
q-185 209 -500 209t-500 -208q-167 -188 -167 -459q0 -272 166 -459q185 -208 501 -208zM1205 595q-26 -144 -132 -230.5t-258 -86.5q-194 0 -289 145q-80 122 -80 318t98 328q109 148 298 148q131 0 225 -64q102 -69 122 -189l6 -35h-89l-6 29q-19 85 -97 134
q-71 45 -162 45q-158 0 -239 -124q-68 -105 -68 -270q0 -167 51 -255q68 -117 235 -136q6 -1 12 -1h13q94 0 172 71t98 173h90z" />
    <glyph glyph-name="trademark" unicode="&#x2122;" horiz-adv-x="1473" 
d="M628 1478h-234v-685h-73v685h-231v62h538v-62zM1379 793h-73v661l-246 -660h-66l-237 662v-663h-73l-2 743h114l235 -653l241 652h107v-742z" />
    <glyph glyph-name="acute" unicode="&#xb4;" horiz-adv-x="754" 
d="M675 1396l-513 -190l-58 133l496 244z" />
    <glyph glyph-name="dieresis" unicode="&#xa8;" horiz-adv-x="806" 
d="M353 1435q0 -54 -36.5 -95.5t-89.5 -41.5t-91 39t-38 92t36 91t87 38q53 0 92.5 -35.5t39.5 -87.5zM715 1429q0 -53 -33.5 -93.5t-84.5 -40.5q-54 0 -94.5 34.5t-40.5 85.5q0 55 35.5 95t88.5 40q51 0 90 -35t39 -86z" />
    <glyph glyph-name="notequal" unicode="&#x2260;" horiz-adv-x="1493" 
d="M1391 461l-3 -138h-743l-224 -395l-121 70l180 323h-393v137h466l196 348h-659v137h735l220 407l118 -68l-184 -336h407v-137h-480l-188 -348h673z" />
    <glyph glyph-name="AE" unicode="&#xc6;" horiz-adv-x="2237" 
d="M2146 0h-1091l1 314h-493l-194 -315h-317l967 1537h1127v-302h-735v-310h574v-297h-580v-319h741v-308zM1058 600v525l-318 -525h318z" />
    <glyph glyph-name="Oslash" unicode="&#xd8;" horiz-adv-x="1527" 
d="M1416 769q0 -210 -66 -381q-73 -190 -210 -295q-152 -117 -369 -117q-88 0 -166.5 20.5t-147.5 59.5l-50 -79h-238l131 206q-97 111 -146.5 267.5t-49.5 328.5q0 316 182 538q194 237 502 237q89 0 173 -28q72 -24 144 -70l63 99h234l-149 -236q81 -106 122 -249.5
t41 -300.5zM936 1188q-30 33 -71.5 51.5t-95.5 18.5q-112 0 -182 -85q-57 -70 -84 -195q-21 -99 -21 -218q0 -62 6.5 -124t21.5 -120zM1040 782q0 86 -14 176l-404 -640q30 -26 67.5 -39.5t82.5 -13.5q110 0 174 83q53 68 76 199q18 101 18 235z" />
    <glyph glyph-name="infinity" unicode="&#x221e;" horiz-adv-x="1708" 
d="M1635 540q0 -147 -97 -243q-91 -90 -217 -90q-83 0 -173 37q-99 41 -176 113l-99 93l-99 -93q-77 -71 -176 -112q-92 -38 -173 -38q-126 0 -217 89q-98 96 -98 244q0 128 95 217t226 89q80 0 161 -37.5t157 -106.5l124 -111l124 111q78 70 157.5 107t160.5 37
q131 0 225.5 -88.5t94.5 -217.5zM1525 532q-8 87 -68 142t-150 55q-64 0 -116 -25q-32 -15 -102 -67l-148 -111l138 -128q49 -46 102.5 -66t123.5 -20q98 0 159 64t61 156zM805 526l-148 111q-65 48 -102 66q-54 26 -116 26q-89 0 -149.5 -55t-68.5 -142q0 -93 60.5 -156.5
t159.5 -63.5q71 0 122.5 19t103.5 67z" />
    <glyph glyph-name="plusminus" unicode="&#xb1;" horiz-adv-x="1031" 
d="M927 613h-367v-366h-95v366h-364l1 104h363v366h98v-367h364v-103zM919 -3h-833v79h833v-79z" />
    <glyph glyph-name="lessequal" unicode="&#x2264;" horiz-adv-x="1278" 
d="M1175 262l-1082 508v153l1082 508v-144l-951 -443l951 -440v-142zM1174 4h-1081v121h1081v-121z" />
    <glyph glyph-name="greaterequal" unicode="&#x2265;" horiz-adv-x="1272" 
d="M1163 765l-1082 -507v142l950 440l-950 442v144l1082 -507v-154zM1163 -1h-1081v121h1081v-121z" />
    <glyph glyph-name="yen" unicode="&#xa5;" horiz-adv-x="1423" 
d="M1342 1514l-287 -531h250v-210h-364l-75 -142h427v-210l-429 -4l1 -423h-299v423l-434 4v210h434v4l-70 138h-352v210h243l-283 540h388l274 -580l290 571h286z" />
    <glyph glyph-name="mu" unicode="&#xb5;" horiz-adv-x="1383" 
d="M1285 217l-13 -67q-17 -81 -99 -139q-75 -53 -145 -53q-13 0 -19 1q-73 10 -130 71q-61 65 -61 145l-56 -55q-67 -67 -143.5 -111t-133.5 -44q-55 0 -123 31q-81 37 -126 98v-77q0 -69 38.5 -171.5t38.5 -184.5q0 -56 -28 -97q-31 -45 -81 -45q-45 0 -75 39t-30 89
q0 66 17 123q47 155 48 167t3 31t2 30v1089h184v-749q0 -92 55.5 -162t141.5 -70q88 0 176 68q96 74 96 162v751h180v-846q0 -67 29 -119q33 -60 85 -60q6 0 18 2q37 7 60.5 31.5t34.5 63.5l17 58h39z" />
    <glyph glyph-name="partialdiff" unicode="&#x2202;" horiz-adv-x="1134" 
d="M1029 809q0 -196 -58 -386q-62 -204 -170 -326q-121 -137 -273 -137h-16q-12 2 -18 2q-185 18 -289 131q-100 109 -100 278q0 183 119.5 319.5t295.5 136.5q75 0 138 -25q53 -21 125 -72l62 -45l17 105q4 27 7 61.5t3 64.5q0 212 -87 359q-99 167 -272 167
q-50 0 -101.5 -17.5t-101.5 -34.5l-38 -11l-78 97l88 26q60 17 100.5 23.5t95.5 6.5q251 0 408 -230q143 -209 143 -493zM829 609l-56 53q-34 32 -63.5 48.5t-73.5 26.5q-27 5 -48 5q-102 0 -183 -88q-72 -79 -106 -201q-18 -66 -18 -136q0 -107 42 -182q47 -84 138 -112
q30 -9 56 -9q76 0 138 71q53 61 92 167q31 85 52 196z" />
    <glyph glyph-name="summation" unicode="&#x3a3;" horiz-adv-x="1613" 
d="M1524 304q-25 -75 -37 -122t-24 -117t-17.5 -116t-5.5 -106l-148 28h-1193l739 814l-726 906l135 -13h1129l3 -333h-44q0 59 -17 101.5t-59 80t-94 49.5q-36 8 -111 8h-610l587 -707l-628 -706h837q42 0 71.5 11.5t67.5 39.5q49 37 74 80.5t25 101.5h46z" />
    <glyph glyph-name="product" unicode="&#x220f;" horiz-adv-x="1828" 
d="M1735 -130h-650v39l54 2q43 0 68.5 6t49.5 30q19 19 25.5 42.5t6.5 53.5q0 10 -0.5 21.5t-0.5 23.5v1373h-761v-1360q0 -62 7 -89q11 -43 47 -70q25 -19 51.5 -24t69.5 -5h41v-43h-650v46h51q45 0 67 4t48 24q32 26 41 70q5 25 5 89v1238q0 90 -67 148q-26 23 -46 33
q-25 13 -53 13l-36 3v43h1632v-46l-46 -2q-28 0 -49.5 -10t-47.5 -31q-40 -32 -53.5 -75t-13.5 -107v-1225q0 -53 7.5 -83.5t36.5 -57.5q25 -22 51.5 -30t66.5 -8l48 -3v-33z" />
    <glyph glyph-name="pi" unicode="&#x3c0;" horiz-adv-x="1323" 
d="M1228 352l-6 -49q-16 -129 -90 -213q-80 -91 -197 -91q-103 0 -153 106q-40 86 -40 228q0 29 1 46t4 51l52 478h-261l-89 -706q-10 -83 -47 -144q-43 -72 -102 -72h-16l-12 4q-40 12 -59 27q-25 19 -34 52q-4 16 -4 33q0 42 34 81q98 113 103 125q17 38 24 54
q11 27 14 57l52 480h-72h-28q-29 0 -41 -1.5t-35 -10.5q-39 -15 -76 -59q-29 -35 -37 -59l-38 15l14 31q66 144 86 170q33 43 88 71q40 20 70 27t75 7h805v-182h-292l-30 -533q0 -73 39.5 -130.5t105.5 -57.5q52 0 89 36t50 91l9 38h44z" />
    <glyph glyph-name="integral" unicode="&#x222b;" horiz-adv-x="716" 
d="M640 1606q-4 -33 -29.5 -54.5t-59.5 -21.5q-22 0 -50 22q-20 16 -28.5 20t-16.5 4q-17 0 -24.5 -27t-7.5 -74q0 -59 8 -148q20 -224 20 -266v-644q0 -140 -11 -251q-17 -171 -58 -266q-53 -124 -145 -124q-20 0 -44 6q-30 9 -54 35t-24 57q0 34 22.5 57.5t55.5 23.5
q23 0 38 -15q42 -41 49 -43t10 -2q27 0 38 49t11 132q0 33 -3.5 120.5t-3.5 126.5v895q0 127 12 215q17 122 55 189q46 80 124 80q43 0 80 -25t37 -61q-1 -7 -1 -10z" />
    <glyph glyph-name="ordfeminine" unicode="&#xaa;" horiz-adv-x="924" 
d="M793 829h-203l-8 53l-4 46q-27 -48 -91 -83q-59 -32 -127 -32q-95 0 -155 48q-68 54 -68 154q0 122 112 184q85 47 233 60l88 9v74q0 28 -30 47.5t-66 19.5q-54 0 -85.5 -26.5t-36.5 -73.5l-194 16l2 13q16 104 123 160q90 47 211 47q148 0 222 -61q53 -43 58 -104l6 -60
v-413q0 -23 6 -52zM829 548h-715v171h715v-171zM571 1083v79l-62 -6q-57 -5 -103 -37q-52 -36 -52 -84q0 -16 5.5 -31t18.5 -33q19 -26 58 -26q48 0 89 37q46 42 46 101z" />
    <glyph glyph-name="ordmasculine" unicode="&#xba;" horiz-adv-x="899" 
d="M786 1178q0 -170 -95 -278t-245 -108q-171 0 -263 116q-81 102 -81 265q0 157 82 255q92 110 260 110q169 0 259 -105q83 -97 83 -255zM790 535h-678v180h678v-180zM563 1154q0 115 -17 170q-27 88 -103 88q-72 0 -100 -65q-21 -49 -21 -146q0 -118 17 -176
q27 -91 102 -91q76 0 104 73q18 48 18 147z" />
    <glyph glyph-name="Omega" unicode="&#x3a9;" horiz-adv-x="1656" 
d="M1572 -4h-611l30 303q147 66 220 196q69 122 69 294q0 138 -31 226q-38 108 -128 165q-102 64 -275 64q-233 0 -346 -135q-97 -116 -97 -320q0 -171 69 -294q73 -129 220 -196l29 -303h-611v319h40q0 -24 3.5 -39t15.5 -33q18 -27 45.5 -39.5t63.5 -12.5h335v62
q-200 34 -323.5 184t-123.5 355q0 240 193 380q185 134 484 134q312 0 493 -135.5t181 -378.5q0 -205 -123.5 -355t-323.5 -184v-62h335q38 0 63.5 11.5t44.5 40.5q12 18 16 33.5t4 38.5h39v-319z" />
    <glyph glyph-name="ae" unicode="&#xe6;" horiz-adv-x="1962" 
d="M1804 510h-728v-98q0 -82 66.5 -143.5t153.5 -61.5q78 0 140 57q52 48 52 87v38l313 -20l-9 -26q-56 -170 -179 -265q-138 -107 -345 -107q-114 0 -192 30q-65 25 -120 76q-15 14 -89 98q-46 -77 -173 -143q-107 -56 -217 -56q-153 0 -251 78q-110 88 -110 250
q0 137 86 226q74 77 211 120q109 34 262 49l142 14v120q0 45 -49 76t-107 31q-87 0 -137.5 -43t-59.5 -118l-314 27l3 20q28 171 201 260q145 75 341 75q114 0 175 -29q15 -7 95 -67q67 55 131 79q73 28 168 28q235 0 387 -163t152 -413zM1465 710q4 19 4 43q0 80 -49 136
q-53 60 -138 60q-82 0 -147 -62t-65 -143q0 -17 3 -34h392zM821 541l-103 -9q-91 -7 -166 -59q-85 -58 -85 -136q0 -50 39 -105q16 -23 41.5 -34t55.5 -11q79 0 144 61q72 67 72 165z" />
    <glyph glyph-name="oslash" unicode="&#xf8;" horiz-adv-x="1258" 
d="M1212 1188l-132 -177q63 -82 97 -185t34 -218q0 -273 -153 -446t-392 -173q-85 0 -159 19t-133 54l-45 -60h-212l129 172q-66 83 -98 192t-32 235q0 255 131 418q147 183 415 183q87 0 160.5 -20.5t134.5 -57.5l48 64h207zM798 912q-23 34 -55.5 52t-78.5 18
q-117 0 -162 -104q-33 -76 -33 -233q0 -21 -0.5 -42t-0.5 -42v-36.5t4 -49.5zM855 569v140l-322 -433q44 -59 128 -59q121 0 165 117q29 77 29 235z" />
    <glyph glyph-name="questiondown" unicode="&#xbf;" 
d="M813 823h-348v348h347zM1165 128q0 -215 -157 -360t-390 -145q-223 0 -357 96q-159 114 -159 345q0 157 102 280q42 50 191 168q103 81 103 135v93h289v-65q0 -148 -27 -213q-7 -16 -66 -95q-20 -26 -89.5 -75.5t-97.5 -81.5q-48 -55 -48 -121q0 -74 30 -121.5t96 -69.5
q30 -10 59 -10q88 0 154 92q51 71 56 123l6 62z" />
    <glyph glyph-name="exclamdown" unicode="&#xa1;" horiz-adv-x="601" 
d="M485 810h-339v348h339v-348zM525 -375h-419l106 1074h204z" />
    <glyph glyph-name="logicalnot" unicode="&#xac;" horiz-adv-x="1674" 
d="M1577 0h-123v522h-1372v115h1495v-637z" />
    <glyph glyph-name="radical" unicode="&#x221a;" horiz-adv-x="1157" 
d="M1069 1668l-287 -1766l-470 932l-180 -91l-29 62l276 130l378 -744l247 1486z" />
    <glyph glyph-name="florin" unicode="&#x192;" horiz-adv-x="1137" 
d="M1044 1594q-27 -76 -107 -76q-18 0 -35 15q-27 24 -34.5 28t-17.5 4q-42 0 -62 -160q-31 -246 -39 -277l-11 -43h206l-11 -85h-218l-125 -624q-27 -138 -62 -249q-53 -170 -117 -267q-82 -125 -178 -125q-26 0 -48.5 7t-40.5 29.5t-18 47.5q0 10 3 19q12 35 36.5 55.5
t59.5 20.5q27 0 43 -27t26.5 -30t14.5 -3q35 0 63 74q22 58 44 170l34 184l144 720h-226l5 85h253l11 56q30 143 66 248q47 137 102 210q67 89 145 89q36 0 66.5 -23.5t30.5 -54.5q0 -9 -3 -18z" />
    <glyph glyph-name="approxequal" unicode="&#x2248;" horiz-adv-x="1412" 
d="M1331 800l-45 -51q-60 -69 -126 -101t-154 -32q-55 0 -113.5 18t-114.5 36l-186 52q-38 11 -76 21.5t-72 10.5q-19 0 -47 -5q-54 -11 -89 -31.5t-75 -63.5l-38 -40l-96 63l31 33q59 64 118 96.5t144 45.5q36 6 67 6q40 0 87 -10q29 -6 93 -25l163 -50q49 -16 99.5 -30.5
t100.5 -14.5q69 6 109 22q48 19 90 64l40 42zM1331 439l-45 -51q-60 -69 -125 -100.5t-155 -31.5q-54 0 -113 17.5t-115 35.5l-186 52q-38 11 -76 21.5t-72 10.5q-19 0 -47 -5q-52 -10 -88 -31t-76 -63l-38 -41l-96 63l31 34q59 64 118 96t144 45q36 6 67 6q40 0 87 -10
q29 -6 93 -25l163 -49q62 -22 89 -31q46 -15 88 -15h14q6 1 9 1q63 0 109 19t90 66l40 42z" />
    <glyph glyph-name="Delta" unicode="&#x2206;" horiz-adv-x="1545" 
d="M1471 -1h-1359l725 1524zM1202 99l-450 1063l-498 -1063h948z" />
    <glyph glyph-name="guillemotleft" unicode="&#xab;" horiz-adv-x="1172" 
d="M1077 808l-309 -221l302 -215v-224l-429 334v215l436 322v-211zM530 808l-309 -221l303 -215v-224l-430 334v215l436 322v-211z" />
    <glyph glyph-name="guillemotright" unicode="&#xbb;" horiz-adv-x="1145" 
d="M1067 482l-429 -334v224l302 215l-308 221v211l435 -322v-215zM521 482l-430 -334v224l303 215l-310 221v211l437 -322v-215z" />
    <glyph glyph-name="ellipsis" unicode="&#x2026;" horiz-adv-x="1547" 
d="M464 9h-345v348h345v-348zM1454 -1h-346v348h346v-348zM969 -1h-345v348h345v-348z" />
    <glyph glyph-name="nonbreakingspace" unicode="&#xa0;" horiz-adv-x="1422" 
 />
    <glyph glyph-name="Agrave" unicode="&#xc0;" horiz-adv-x="1606" 
d="M1122 1756l-54 -132l-504 184l67 187zM1520 -1h-393l-90 319h-493l-97 -319h-317l497 1540h416zM952 604l-157 526l-162 -526h319z" />
    <glyph glyph-name="Atilde" unicode="&#xc3;" horiz-adv-x="1606" 
d="M1228 1892q0 -121 -35 -184q-48 -86 -166 -86q-43 0 -120.5 40.5t-149.5 80.5q-81 43 -116 43q-30 0 -46 -16q-20 -20 -20 -62v-36h-158q10 117 50 183q52 86 151 86q72 0 150 -45q64 -42 128 -83q76 -46 137 -46q20 0 33 30.5t13 66.5l-1 28h150zM1494 -10h-393l-90 316
h-493l-97 -311h-317l497 1543h416zM926 592l-157 526l-162 -526h319z" />
    <glyph glyph-name="Otilde" unicode="&#xd5;" horiz-adv-x="1496" 
d="M1147 1909q-11 -127 -39 -179q-46 -84 -162 -84q-43 0 -120.5 40.5t-149.5 79.5q-82 43 -117 43q-30 0 -47.5 -17.5t-17.5 -60.5v-35h-158q10 117 50 183q52 86 151 86q72 0 150 -45l128 -84q76 -46 138 -46q25 0 37 46q8 30 8 51l-1 29zM1405 771q0 -211 -66 -382
q-73 -189 -210 -295q-153 -118 -369 -118q-321 0 -504 250q-164 224 -164 556q0 315 182 537q194 237 502 237q212 0 361 -117q134 -105 204 -291q64 -170 64 -377zM1029 785q0 127 -18 217q-24 120 -78 183q-65 76 -175 76q-112 0 -182 -85q-57 -70 -84 -196
q-21 -99 -21 -218q0 -118 23 -218q28 -124 87 -193q71 -84 180 -84q108 0 173 84q54 70 77 199q18 100 18 235z" />
    <glyph glyph-name="OE" unicode="&#x152;" horiz-adv-x="2227" 
d="M2152 0h-1095v44q-60 -28 -128 -43t-148 -15q-320 0 -503 249q-164 223 -164 554q0 316 182 538q194 237 502 237q69 0 139 -19q57 -15 120 -46v39h1095v-308h-735v-306h574v-296h-575l-5 -37v-283h741v-308zM1050 792q0 128 -18 218q-24 119 -78 182q-65 76 -175 76
q-112 0 -182 -85q-57 -70 -84 -195q-21 -99 -21 -218t23 -218q29 -124 87 -193q71 -84 180 -84q110 0 174 83q53 68 76 199q18 101 18 235z" />
    <glyph glyph-name="oe" unicode="&#x153;" horiz-adv-x="1995" 
d="M1913 520h-730q0 -18 0.5 -45.5t1.5 -52.5q0 -82 66.5 -143.5t153.5 -61.5q78 0 140 57q52 48 52 87v38l313 -20l-9 -26q-56 -170 -179 -265q-138 -107 -345 -107q-108 0 -199 34.5t-164 101.5q-74 -67 -166 -102.5t-198 -35.5q-273 0 -420 186q-130 165 -130 426
q0 255 131 418q147 183 415 183q120 0 216 -38q90 -35 158 -103q68 64 155.5 97.5t197.5 33.5q235 0 387 -163t152 -413zM1574 720q4 19 4 43q0 80 -49 136q-53 60 -138 60q-82 0 -147 -62t-65 -143q0 -17 3 -34h392zM839 559q0 205 -44 305q-47 108 -147 108
q-117 0 -162 -104q-33 -76 -33 -233q0 -119 9 -191q14 -111 49 -167q44 -70 126 -70q19 -1 24 -1q105 0 149 130q29 86 29 223z" />
    <glyph glyph-name="endash" unicode="&#x2013;" horiz-adv-x="1280" 
d="M1181 461h-1082v275h1082v-275z" />
    <glyph glyph-name="emdash" unicode="&#x2014;" horiz-adv-x="2253" 
d="M2158 460h-2074v273h2074v-273z" />
    <glyph glyph-name="quotedblleft" unicode="&#x201c;" horiz-adv-x="932" 
d="M842 914h-321v288l190 335h126l-146 -305l151 4v-322zM418 914h-321v288l190 335h126l-153 -305l158 4v-322z" />
    <glyph glyph-name="quotedblright" unicode="&#x201d;" horiz-adv-x="945" 
d="M424 1262l-200 -347h-124l151 302h-150v319h323v-274zM855 1258l-200 -346h-125l152 301h-151v320h324v-275z" />
    <glyph glyph-name="quoteleft" unicode="&#x2018;" horiz-adv-x="516" 
d="M418 915h-321v288l190 335h126l-153 -304h158v-319z" />
    <glyph glyph-name="quoteright" unicode="&#x2019;" horiz-adv-x="515" 
d="M421 1263l-199 -346h-125l152 301h-151v320h323v-275z" />
    <glyph glyph-name="divide" unicode="&#xf7;" horiz-adv-x="1370" 
d="M834 1015q0 -53 -35 -92t-86 -39q-53 0 -91 40t-38 94q0 51 36 86t87 35q52 0 89.5 -36.5t37.5 -87.5zM1305 645h-1175v129h1175v-129zM831 396q0 -50 -36.5 -85.5t-87.5 -35.5t-87 39t-36 93q0 48 36 83t85 35q52 0 89 -38t37 -91z" />
    <glyph glyph-name="lozenge" unicode="&#x25ca;" horiz-adv-x="1112" 
d="M1015 750l-388 -753h-128l-394 764l394 727h128zM898 750l-336 628l-337 -620l340 -666z" />
    <glyph glyph-name="ydieresis" unicode="&#xff;" horiz-adv-x="1205" 
d="M590 1406q0 -54 -36.5 -95.5t-89.5 -41.5t-91 39t-38 92t36 91t87 38q53 0 92.5 -35.5t39.5 -87.5zM952 1400q0 -53 -33.5 -93.5t-84.5 -40.5q-54 0 -94.5 34.5t-40.5 85.5q0 55 35.5 95t88.5 40q51 0 90 -35t39 -86zM1097 1151l-387 -1209q-41 -128 -83 -185
q-36 -49 -95 -86q-46 -29 -117 -42q-54 -10 -116 -10q-23 0 -37.5 1t-32.5 3l-78 8v254l44 -2q27 0 59 -3q75 -7 88 -7h13q7 0 21 2q48 6 82 45t34 85q0 18 -6 36l-405 1109h354l213 -673l203 674h246z" />
    <glyph glyph-name="Ydieresis" unicode="&#x178;" horiz-adv-x="1386" 
d="M1349 1538l-484 -889v-649h-362v642l-466 896h412l286 -587l291 587h323zM681 1780q0 -54 -36.5 -95.5t-89.5 -41.5t-91 39t-38 92t36 91t87 38q53 0 92.5 -35.5t39.5 -87.5zM1043 1774q0 -53 -33.5 -93.5t-84.5 -40.5q-54 0 -94.5 34.5t-40.5 85.5q0 55 35.5 95t88.5 40
q51 0 90 -35t39 -86z" />
    <glyph glyph-name="periodcentered" unicode="&#xb7;" horiz-adv-x="547" 
d="M455 614h-345v348h345v-348z" />
    <glyph glyph-name="periodcentered" unicode="&#x2219;" horiz-adv-x="547" 
d="M455 614h-345v348h345v-348z" />
    <glyph glyph-name="quotesinglbase" unicode="&#x201a;" horiz-adv-x="515" 
d="M421 48l-199 -346h-125l152 301h-151v320h323v-275z" />
    <glyph glyph-name="quotedblbase" unicode="&#x201e;" horiz-adv-x="945" 
d="M424 38l-200 -347h-124l151 302h-150v319h323v-274zM855 34l-200 -346h-125l152 301h-151v320h324v-275z" />
    <glyph glyph-name="Acircumflex" unicode="&#xc2;" horiz-adv-x="1496" 
d="M1448 0h-393l-90 308h-493l-97 -308h-317l497 1538h417zM880 600l-157 527l-161 -527h318zM1182 1638h-241l-180 122l-179 -120h-238l414 334z" />
    <glyph glyph-name="Ecircumflex" unicode="&#xca;" horiz-adv-x="1386" 
d="M1255 0h-1095v1538h1095v-308h-735v-306h574v-296h-580v-320h741v-308zM1136 1638h-241l-180 122l-179 -120h-238l414 334z" />
    <glyph glyph-name="Aacute" unicode="&#xc1;" horiz-adv-x="1518" 
d="M1448 0h-393l-90 308h-493l-97 -308h-317l497 1538h417zM880 600l-157 527l-161 -527h318zM1053 1829l-513 -190l-58 133l496 244z" />
    <glyph glyph-name="Edieresis" unicode="&#xcb;" horiz-adv-x="1375" 
d="M1255 0h-1095v1538h1095v-308h-735v-306h574v-296h-580v-320h741v-308zM670 1780q0 -54 -36.5 -95.5t-89.5 -41.5t-91 39t-38 92t36 91t87 38q53 0 92.5 -35.5t39.5 -87.5zM1032 1774q0 -53 -33.5 -93.5t-84.5 -40.5q-54 0 -94.5 34.5t-40.5 85.5q0 55 35.5 95t88.5 40
q51 0 90 -35t39 -86z" />
    <glyph glyph-name="Egrave" unicode="&#xc8;" horiz-adv-x="1375" 
d="M1255 0h-1095v1538h1095v-308h-735v-306h574v-296h-580v-320h741v-308zM1000 1778l-54 -132l-503 184l67 187z" />
    <glyph glyph-name="Iacute" unicode="&#xcd;" horiz-adv-x="638" 
d="M496 0h-363v1538h363v-1538zM618 1813l-513 -190l-58 133l496 244z" />
    <glyph glyph-name="Icircumflex" unicode="&#xce;" horiz-adv-x="627" 
d="M496 0h-363v1538h363v-1538zM718 1640h-241l-180 122l-179 -120h-238l414 334z" />
    <glyph glyph-name="Idieresis" unicode="&#xcf;" horiz-adv-x="627" 
d="M496 0h-363v1538h363v-1538zM278 1782q0 -54 -36.5 -95.5t-89.5 -41.5t-91 39t-38 92t36 91t87 38q53 0 92.5 -35.5t39.5 -87.5zM640 1776q0 -53 -33.5 -93.5t-84.5 -40.5q-54 0 -94.5 34.5t-40.5 85.5q0 55 35.5 95t88.5 40q51 0 90 -35t39 -86z" />
    <glyph glyph-name="Igrave" unicode="&#xcc;" horiz-adv-x="627" 
d="M496 0h-363v1538h363v-1538zM593 1771l-54 -132l-503 184l67 187z" />
    <glyph glyph-name="Oacute" unicode="&#xd3;" horiz-adv-x="1485" 
d="M1416 769q0 -210 -66 -381q-73 -190 -210 -295q-152 -117 -369 -117q-320 0 -503 249q-164 223 -164 554q0 316 182 538q194 237 502 237q212 0 360 -116q134 -105 204 -292q64 -170 64 -377zM1040 782q0 128 -18 218q-24 119 -78 182q-65 76 -175 76q-112 0 -182 -85
q-57 -70 -84 -195q-21 -99 -21 -218t23 -218q29 -124 87 -193q71 -84 180 -84q110 0 174 83q53 68 76 199q18 101 18 235zM1056 1831l-513 -190l-58 133l496 244z" />
    <glyph glyph-name="Ocircumflex" unicode="&#xd4;" horiz-adv-x="1485" 
d="M1416 769q0 -210 -66 -381q-73 -190 -210 -295q-152 -117 -369 -117q-320 0 -503 249q-164 223 -164 554q0 316 182 538q194 237 502 237q212 0 360 -116q134 -105 204 -292q64 -170 64 -377zM1040 782q0 128 -18 218q-24 119 -78 182q-65 76 -175 76q-112 0 -182 -85
q-57 -70 -84 -195q-21 -99 -21 -218t23 -218q29 -124 87 -193q71 -84 180 -84q110 0 174 83q53 68 76 199q18 101 18 235zM1202 1640h-241l-180 122l-179 -120h-238l414 334z" />
    <glyph glyph-name="Ograve" unicode="&#xd2;" horiz-adv-x="1485" 
d="M1416 769q0 -210 -66 -381q-73 -190 -210 -295q-152 -117 -369 -117q-320 0 -503 249q-164 223 -164 554q0 316 182 538q194 237 502 237q212 0 360 -116q134 -105 204 -292q64 -170 64 -377zM1040 782q0 128 -18 218q-24 119 -78 182q-65 76 -175 76q-112 0 -182 -85
q-57 -70 -84 -195q-21 -99 -21 -218t23 -218q29 -124 87 -193q71 -84 180 -84q110 0 174 83q53 68 76 199q18 101 18 235zM1046 1773l-54 -132l-503 184l67 187z" />
    <glyph glyph-name="Uacute" unicode="&#xda;" horiz-adv-x="1397" 
d="M1318 585q0 -187 -35 -295q-48 -147 -169 -221q-141 -86 -397 -86q-341 0 -491 164q-129 141 -129 418v973h390l-1 -848q0 -266 47 -341.5t207 -75.5q174 0 220.5 72t46.5 334l1 859h310v-953zM1043 1831l-513 -190l-58 133l496 244z" />
    <glyph glyph-name="Ucircumflex" unicode="&#xdb;" horiz-adv-x="1397" 
d="M1318 585q0 -187 -35 -295q-48 -147 -169 -221q-141 -86 -397 -86q-341 0 -491 164q-129 141 -129 418v973h390l-1 -848q0 -266 47 -341.5t207 -75.5q174 0 220.5 72t46.5 334l1 859h310v-953zM1138 1640h-241l-180 122l-179 -120h-238l414 334z" />
    <glyph glyph-name="Ugrave" unicode="&#xd9;" horiz-adv-x="1397" 
d="M1318 585q0 -187 -35 -295q-48 -147 -169 -221q-141 -86 -397 -86q-341 0 -491 164q-129 141 -129 418v973h390l-1 -848q0 -266 47 -341.5t207 -75.5q174 0 220.5 72t46.5 334l1 859h310v-953zM978 1773l-54 -132l-503 184l67 187z" />
    </font>
</defs>
</svg>
